<svg width="4195" height="2183" xmlns="http://www.w3.org/2000/svg" xmlns:xlink="http://www.w3.org/1999/xlink" xml:space="preserve" overflow="hidden"><g transform="translate(-133 -104)"><path d="M804.5 197.001C804.5 147.571 844.571 107.5 894 107.5L1957 107.5C2006.43 107.5 2046.5 147.571 2046.5 197.001L2046.5 197.001C2046.5 246.43 2006.43 286.501 1957 286.501L894 286.5C844.571 286.5 804.5 246.429 804.5 196.999Z" stroke="#E97132" stroke-width="6.875" stroke-miterlimit="8" fill="#FFFFFF" fill-rule="evenodd"/><text font-family="Aptos,Aptos_MSFontService,sans-serif" font-weight="400" font-size="83" transform="matrix(1 0 0 1 985.273 223)">Irradiância</text><text font-family="Aptos,Aptos_MSFontService,sans-serif" font-weight="400" font-size="83" transform="matrix(1 0 0 1 1382.14 223)">Extraterrestre</text><path d="M959.5 723 1425 404.5 1890.5 723 1425 1041.5Z" stroke="#0F9ED5" stroke-width="6.875" stroke-miterlimit="8" fill="#FFFFFF" fill-rule="evenodd"/><text font-family="Aptos,Aptos_MSFontService,sans-serif" font-weight="400" font-size="73" transform="matrix(1 0 0 1 1134.01 670)">Os obstáculos são </text><text font-family="Aptos,Aptos_MSFontService,sans-serif" font-weight="400" font-size="73" transform="matrix(1 0 0 1 1165.08 758)">considerados na </text><text font-family="Aptos,Aptos_MSFontService,sans-serif" font-weight="400" font-size="73" transform="matrix(1 0 0 1 1241.74 846)">irradiância?</text><path d="M2046.5 1156 2431.5 871.5 2816.5 1156 2431.5 1440.5Z" stroke="#0F9ED5" stroke-width="6.875" stroke-miterlimit="8" fill="#FFFFFF" fill-rule="evenodd"/><text font-family="Aptos,Aptos_MSFontService,sans-serif" font-weight="400" font-size="69" transform="matrix(1 0 0 1 2152.45 1142)">É perpendicular </text><text font-family="Aptos,Aptos_MSFontService,sans-serif" font-weight="400" font-size="69" transform="matrix(1 0 0 1 2634.85 1142)">ao</text><text font-family="Aptos,Aptos_MSFontService,sans-serif" font-weight="400" font-size="69" transform="matrix(1 0 0 1 2351.51 1225)">solo?</text><path d="M986.5 1623 1438.5 1338.5 1890.5 1623 1438.5 1907.5Z" stroke="#0F9ED5" stroke-width="6.875" stroke-miterlimit="8" fill="#FFFFFF" fill-rule="evenodd"/><text font-family="Aptos,Aptos_MSFontService,sans-serif" font-weight="400" font-size="73" transform="matrix(1 0 0 1 1104.4 1602)">O ângulo otimizado é </text><text font-family="Aptos,Aptos_MSFontService,sans-serif" font-weight="400" font-size="73" transform="matrix(1 0 0 1 1107.43 1690)">para obter a energia?</text><path d="M3048.5 1623 3434 1338.5 3819.5 1623 3434 1907.5Z" stroke="#0F9ED5" stroke-width="6.875" stroke-miterlimit="8" fill="#FFFFFF" fill-rule="evenodd"/><text font-family="Aptos,Aptos_MSFontService,sans-serif" font-weight="400" font-size="69" transform="matrix(1 0 0 1 3249.63 1612)">É </text><text font-family="Aptos,Aptos_MSFontService,sans-serif" font-weight="400" font-size="69" transform="matrix(1 0 0 1 3301.77 1612)">irradiância</text><text font-family="Aptos,Aptos_MSFontService,sans-serif" font-weight="400" font-size="69" transform="matrix(1 0 0 1 3331.26 1695)">direta</text><text font-family="Aptos,Aptos_MSFontService,sans-serif" font-weight="400" font-size="69" transform="matrix(1 0 0 1 3501.69 1695)">?</text><path d="M136.5 1034.5C136.5 984.794 176.794 944.5 226.5 944.5L772.5 944.5C822.206 944.5 862.5 984.794 862.5 1034.5L862.5 1034.5C862.5 1084.21 822.206 1124.5 772.5 1124.5L226.5 1124.5C176.794 1124.5 136.5 1084.21 136.5 1034.5Z" stroke="#E97132" stroke-width="6.875" stroke-miterlimit="8" fill="#FFFFFF" fill-rule="evenodd"/><text font-family="Aptos,Aptos_MSFontService,sans-serif" font-weight="400" font-size="83" transform="matrix(1 0 0 1 332.03 1061)">Clear Sky</text><path d="M390.5 2134C390.5 2074.08 439.077 2025.5 499 2025.5L1008 2025.5C1067.92 2025.5 1116.5 2074.08 1116.5 2134L1116.5 2134C1116.5 2193.92 1067.92 2242.5 1008 2242.5L499 2242.5C439.077 2242.5 390.5 2193.92 390.5 2134Z" stroke="#E97132" stroke-width="6.875" stroke-miterlimit="8" fill="#FFFFFF" fill-rule="evenodd"/><text font-family="Aptos,Aptos_MSFontService,sans-serif" font-weight="400" font-size="83" transform="matrix(1 0 0 1 516.412 2160)">Transposição</text><path d="M1762.5 2138C1762.5 2075.87 1812.87 2025.5 1875 2025.5L2376 2025.5C2438.13 2025.5 2488.5 2075.87 2488.5 2138L2488.5 2138C2488.5 2200.13 2438.13 2250.5 2376 2250.5L1875 2250.5C1812.87 2250.5 1762.5 2200.13 1762.5 2138Z" stroke="#E97132" stroke-width="6.875" stroke-miterlimit="8" fill="#FFFFFF" fill-rule="evenodd"/><text font-family="Aptos,Aptos_MSFontService,sans-serif" font-weight="400" font-size="83" transform="matrix(1 0 0 1 1849.68 2115)">Plano </text><text font-family="Aptos,Aptos_MSFontService,sans-serif" font-weight="400" font-size="83" transform="matrix(1 0 0 1 2069.68 2115)">inclinado</text><text font-family="Aptos,Aptos_MSFontService,sans-serif" font-weight="400" font-size="83" transform="matrix(1 0 0 1 2023.25 2214)">(POA)</text><path d="M2535.5 2138C2535.5 2075.87 2585.87 2025.5 2648 2025.5L3150 2025.5C3212.13 2025.5 3262.5 2075.87 3262.5 2138L3262.5 2138C3262.5 2200.13 3212.13 2250.5 3150 2250.5L2648 2250.5C2585.87 2250.5 2535.5 2200.13 2535.5 2138Z" stroke="#E97132" stroke-width="6.875" stroke-miterlimit="8" fill="#FFFFFF" fill-rule="evenodd"/><text font-family="Aptos,Aptos_MSFontService,sans-serif" font-weight="400" font-size="83" transform="matrix(1 0 0 1 2626.85 2164)">Decomposição</text><path d="M3598.5 2138C3598.5 2075.87 3648.87 2025.5 3711 2025.5L4212 2025.5C4274.13 2025.5 4324.5 2075.87 4324.5 2138L4324.5 2138C4324.5 2200.13 4274.13 2250.5 4212 2250.5L3711 2250.5C3648.87 2250.5 3598.5 2200.13 3598.5 2138Z" stroke="#E97132" stroke-width="6.875" stroke-miterlimit="8" fill="#FFFFFF" fill-rule="evenodd"/><text font-family="Aptos,Aptos_MSFontService,sans-serif" font-weight="400" font-size="83" transform="matrix(1 0 0 1 3695.4 2164)">Estimação</text><text font-family="Aptos,Aptos_MSFontService,sans-serif" font-weight="400" font-size="83" transform="matrix(1 0 0 1 4090.9 2164)">DNI</text><path d="M1428.94 286.5 1428.94 381.623 1422.06 381.623 1422.06 286.5ZM1439.25 377.039 1425.5 404.539 1411.75 377.039Z" fill="#156082"/><path d="M0-3.4375 463.401-3.4375 463.401 198.914 456.526 198.914 456.526 0 459.963 3.4375 0 3.4375ZM473.713 194.331 459.963 221.831 446.213 194.331Z" fill="#156082" transform="matrix(-1 1.22465e-16 1.22465e-16 1 959.463 722.5)"/><path d="M1890.5 719.063 2434.55 719.063 2434.55 848.214 2427.68 848.214 2427.68 722.5 2431.12 725.938 1890.5 725.938ZM2444.87 843.631 2431.12 871.131 2417.37 843.631Z" fill="#156082"/><path d="M0-3.4375 610.857-3.4375 610.857 159.416 603.982 159.416 603.982 0 607.419 3.4375 0 3.4375ZM621.169 154.832 607.419 182.332 593.669 154.832Z" fill="#156082" transform="matrix(-1 1.22465e-16 1.22465e-16 1 2045.92 1156.5)"/><path d="M2816.5 1153.06 3437.47 1153.06 3437.47 1315.92 3430.59 1315.92 3430.59 1156.5 3434.03 1159.94 2816.5 1159.94ZM3447.78 1311.33 3434.03 1338.83 3420.28 1311.33Z" fill="#156082"/><path d="M0-3.4375 236.196-3.4375 236.196 379.614 229.321 379.614 229.321 0 232.759 3.4375 0 3.4375ZM246.509 375.03 232.759 402.53 219.009 375.03Z" fill="#156082" transform="matrix(-1 1.22465e-16 1.22465e-16 1 986.259 1622.5)"/><path d="M1890.5 1619.06 2128.34 1619.06 2128.34 2002.11 2121.47 2002.11 2121.47 1622.5 2124.91 1625.94 1890.5 1625.94ZM2138.66 1997.53 2124.91 2025.03 2111.16 1997.53Z" fill="#156082"/><path d="M0-3.4375 153.401-3.4375 153.401 379.613 146.526 379.613 146.526 0 149.963 3.4375 0 3.4375ZM163.713 375.03 149.963 402.53 136.213 375.03Z" fill="#156082" transform="matrix(-1 1.22465e-16 1.22465e-16 1 3048.46 1622.5)"/><path d="M3819.5 1619.06 3965.36 1619.06 3965.36 2002.11 3958.49 2002.11 3958.49 1622.5 3961.93 1625.94 3819.5 1625.94ZM3975.68 1997.53 3961.93 2025.03 3948.18 1997.53Z" fill="#156082"/><text font-family="Aptos,Aptos_MSFontService,sans-serif" font-weight="400" font-size="83" transform="matrix(1 0 0 1 817.363 1582)">Não</text><text font-family="Aptos,Aptos_MSFontService,sans-serif" font-weight="400" font-size="83" transform="matrix(1 0 0 1 676.282 682)">Não</text><text font-family="Aptos,Aptos_MSFontService,sans-serif" font-weight="400" font-size="83" transform="matrix(1 0 0 1 2920.14 1582)">Não</text><text font-family="Aptos,Aptos_MSFontService,sans-serif" font-weight="400" font-size="83" transform="matrix(1 0 0 1 1708.93 1118)">Não</text><text font-family="Aptos,Aptos_MSFontService,sans-serif" font-weight="400" font-size="83" transform="matrix(1 0 0 1 2107.88 698)">Sim</text><text font-family="Aptos,Aptos_MSFontService,sans-serif" font-weight="400" font-size="83" transform="matrix(1 0 0 1 1945.27 1579)">Sim</text><text font-family="Aptos,Aptos_MSFontService,sans-serif" font-weight="400" font-size="83" transform="matrix(1 0 0 1 3827.37 1586)">Sim</text><text font-family="Aptos,Aptos_MSFontService,sans-serif" font-weight="400" font-size="83" transform="matrix(1 0 0 1 3062.69 1119)">Sim</text></g></svg>