<svg width="2572" height="2248" xmlns="http://www.w3.org/2000/svg" xmlns:xlink="http://www.w3.org/1999/xlink" xml:space="preserve" overflow="hidden"><g transform="translate(-488 -106)"><path d="M2992.27 1398.44 2992.27 1398.44C2959.48 1355.77 2955.03 1361.73 2950.36 1310.86 2941.64 1215.95 2968.12 1178.33 2925.7 1114.86 2920.76 1107.48 2915.78 1099.8 2908.44 1094.01 2897.31 1085.22 2877.59 1083.79 2864.06 1081.5L2716.13 1085.67C2696.86 1088.73 2683.53 1104.11 2666.82 1112.78 2647.36 1122.88 2628.2 1133.54 2607.65 1141.97 2601.19 1144.62 2576.55 1147.21 2568.2 1148.22 2554.23 1153.09 2539.91 1157.29 2526.29 1162.82 2519.3 1165.66 2514.26 1172.43 2506.57 1173.24L2467.12 1169.07C2449.86 1169.77 2432.4 1168.84 2415.34 1171.16 2386.21 1175.12 2329.05 1187.84 2329.05 1187.84 2317.54 1194.1 2304.38 1198.58 2294.53 1206.61 2281.86 1216.92 2262.48 1242.05 2262.48 1242.05 2255.35 1258.13 2256.4 1260.15 2242.76 1273.33 2235.87 1279.99 2228.21 1286.06 2220.57 1292.1 2215.87 1295.8 2209.92 1298.38 2205.77 1302.52 2200.77 1307.53 2198.1 1313.96 2193.45 1319.2 2190.66 1322.35 2186.49 1324.47 2183.58 1327.54 2179.88 1331.46 2177.01 1335.88 2173.72 1340.05 2172.9 1351.87 2174.52 1363.99 2171.26 1375.5 2165.57 1395.55 2156.81 1391.38 2139.21 1398.44 2114.45 1408.35 2116.56 1407.92 2099.76 1419.29 2096.47 1435.27 2091.63 1451.09 2089.9 1467.24 2088.47 1480.48 2089.43 1490.96 2082.5 1502.69 2079.85 1507.17 2077.78 1512.72 2072.64 1515.2 2054.08 1524.17 2032.58 1527.97 2013.46 1536.05L1993.74 1544.39C1976.87 1565.8 1992.12 1543.66 1993.74 1602.78 1994.09 1615.3 1993.37 1627.9 1991.28 1640.31 1989.96 1648.08 1980.02 1648.02 1974.02 1650.73 1949.47 1661.81 1954.15 1659.19 1939.5 1671.59 1941.97 1679.23 1938.47 1691.05 1946.9 1694.52 1996.45 1714.94 2119.79 1715.54 2163.86 1717.46L2563.27 1734.14 2666.82 1750.82C2809.36 1771.71 2700.11 1752.53 2782.7 1767.5 2883.51 1763.79 2922.58 1769.72 3002.13 1752.9 3008.94 1751.46 3015.28 1748.73 3021.86 1746.65 3028.74 1737.91 3029.19 1736.45 3041.58 1727.88 3045.29 1725.32 3049.8 1723.71 3053.91 1721.63 3054.73 1713.98 3057.07 1706.35 3056.37 1698.69 3051.93 1649.82 3045.34 1619.78 3036.65 1575.67 3035.83 1563.85 3034.67 1552.05 3034.18 1540.22 3028 1388.65 3058.95 1436.13 3021.86 1383.84 3016.92 1384.54 3011.63 1384.21 3007.06 1385.93L2992.27 1398.44Z" stroke="#000000" stroke-width="6.875" stroke-miterlimit="8" fill="#FFFFFF" fill-rule="evenodd"/><path d="M636.603 1311.46C1008.71 1019.78 1835.98 755.145 2484.35 720.381 2698.49 708.899 2874.93 723.985 2994.59 764.005" stroke="#156082" stroke-width="6.875" stroke-miterlimit="8" fill="none" fill-rule="evenodd"/><path d="M637.5 1467.5 637.5 1467.5C672.962 1477.27 709.18 1484.63 743.887 1496.81 769.125 1505.67 778.17 1517.67 787.91 1540.78 793.912 1555.02 794.854 1571.36 802.584 1584.74 813.464 1603.58 825.936 1622.46 842.938 1636.04 863.44 1652.42 888.349 1662.73 912.639 1672.68 952.065 1688.83 995.818 1696.76 1037.37 1705.65 1061.4 1717.66 1078.62 1723.17 1096.07 1745.96 1125.84 1784.84 1105.57 1772.28 1121.75 1804.58 1126.9 1814.88 1134.36 1823.89 1140.09 1833.89 1144.16 1841 1146.24 1849.27 1151.09 1855.87 1159.8 1867.73 1170.33 1878.16 1180.44 1888.85 1199.06 1908.54 1217.84 1927.1 1239.14 1943.81 1247.41 1950.3 1257.38 1954.7 1264.82 1962.13 1275.89 1973.19 1284.38 1986.55 1294.17 1998.77 1303.95 2010.98 1313.84 2023.11 1323.51 2035.4 1332.13 2046.35 1340.48 2057.51 1349.19 2068.38 1369.83 2094.15 1411.56 2145.32 1411.56 2145.32 1412.78 2148.99 1413.5 2152.86 1415.23 2156.31 1417.2 2160.25 1420.23 2163.57 1422.56 2167.31 1426.34 2173.34 1429.9 2179.52 1433.57 2185.62 1429.9 2195.39 1428.98 2206.7 1422.56 2214.94 1419.47 2218.91 1412.02 2215.71 1407.89 2218.6 1395.37 2227.35 1381.02 2246.65 1371.2 2258.9 1378.54 2268.67 1383.14 2281.29 1393.22 2288.21 1403.74 2295.44 1417.47 2296.29 1429.9 2299.21 1461.07 2306.53 1550.96 2306.4 1554.63 2306.53 1602.74 2322.55 1548.98 2306.11 1602.32 2317.52 1628.13 2323.05 1653.48 2330.67 1679.36 2335.84 1685.47 2337.07 1691.62 2338.16 1697.7 2339.51 1732.07 2347.14 1721.13 2350.5 1782.08 2350.5 1839.6 2350.5 1897.03 2345.61 1954.5 2343.17" stroke="#042433" stroke-width="6.875" stroke-miterlimit="8" fill="none" fill-rule="evenodd"/><path d="M0 0 1580.33 3.82077" stroke="#000000" stroke-width="6.875" stroke-miterlimit="8" fill="none" fill-rule="evenodd" transform="matrix(1 0 0 -1 1380.5 2073.32)"/><path d="M0 0 1.20285 194.611" stroke="#000000" stroke-width="6.875" stroke-miterlimit="8" fill="none" fill-rule="evenodd" transform="matrix(-1 0 0 1 1955.7 1873.5)"/><path d="M0 0 6.23947 216.551" stroke="#000000" stroke-width="6.875" stroke-miterlimit="8" fill="none" fill-rule="evenodd" transform="matrix(-1 0 0 1 1865.74 1859.5)"/><path d="M1646.5 1966.5 1646.5 2075.64" stroke="#000000" stroke-width="6.875" stroke-miterlimit="8" fill="none" fill-rule="evenodd"/><path d="M1686.5 1966.5 1686.5 2075.64" stroke="#000000" stroke-width="6.875" stroke-miterlimit="8" fill="none" fill-rule="evenodd"/><path d="M1594.79 1979.36 1881.77 1843.15 2006.72 1863.21 1580.99 2065.26Z" stroke="#000000" stroke-width="6.875" stroke-miterlimit="8" fill="#156082" fill-rule="evenodd"/><path d="M799.849 1347.72 862.369 1617.67 855.671 1619.22 793.151 1349.28ZM871.381 1610.88 864.191 1640.77 844.591 1617.09Z" fill="#E97132"/><path d="M716 301 844.481 485.463" stroke="#E97132" stroke-width="10.3125" stroke-miterlimit="8" fill="none" fill-rule="evenodd"/><path d="M851 501 917 602.962" stroke="#E97132" stroke-width="10.3125" stroke-miterlimit="8" stroke-dasharray="10.3125 10.3125" fill="none" fill-rule="evenodd"/><path d="M917 603 1133.33 922" stroke="#E97132" stroke-width="10.3125" stroke-miterlimit="8" fill="none" fill-rule="evenodd"/><path d="M1141 932 1232.67 1086.81" stroke="#E97132" stroke-width="10.3125" stroke-miterlimit="8" stroke-dasharray="10.3125 10.3125" fill="none" fill-rule="evenodd"/><path d="M1233 1087 1421.83 1400.5" stroke="#E97132" stroke-width="10.3125" stroke-miterlimit="8" fill="none" fill-rule="evenodd"/><path d="M0.109663-3.43575 7.91923-3.18648 15.7691-2.45039 23.4899-1.26379 31.0242 0.341431 38.3151 2.33425 45.3056 4.6846 51.939 7.36358 58.1591 10.3439 63.9099 13.6002 69.1354 17.1107 73.7792 20.858 77.7816 24.8309 81.0758 29.0258 83.5782 33.4434 85.1786 38.0739 85.6942 42.4561 86.1662 46.4688 86.0012 45.7476 87.3772 49.7289 87.1193 49.1575 89.339 53.076 89.0516 52.6473 92.0547 56.4716 91.7728 56.1549 95.4991 59.8537 95.2362 59.6182 99.6254 63.1601 99.3836 62.9818 104.375 66.3353 104.152 66.1975 109.687 69.3313 109.478 69.2225 115.494 72.1051 115.296 72.0178 121.735 74.6179 121.543 74.547 128.343 76.8333 128.153 76.7757 135.254 78.7166 134.863 78.6337 142.301 79.7596 141.272 86.5571 133.635 85.4012 126.245 83.3813 119.255 81.031 112.621 78.352 106.401 75.3717 100.651 72.1153 95.425 68.6048 90.7813 64.8576 86.7788 60.8847 83.4846 56.6897 80.9822 52.2722 79.3818 47.6417 78.8663 43.2594 78.3942 39.2467 78.5592 39.968 77.1832 35.9867 77.4412 36.5581 75.2215 32.6396 75.5089 33.0683 72.5057 29.244 72.7876 29.5606 69.0613 25.8618 69.3243 26.0973 64.935 22.5555 65.1768 22.7337 60.185 19.3802 60.4081 19.5181 54.8739 16.3843 55.0823 16.4931 49.066 13.6104 49.264 13.6978 42.8259 11.0976 43.0176 11.1685 36.2179 8.8823 36.407 8.9399 29.3059 6.99896 29.496 7.04513 22.1538 5.48087 22.3479 5.51643 14.825 4.36023 15.0263 4.38511 7.3828 3.66837 7.59406 3.68164-0.109663 3.43575ZM138.766 68.9828 164.56 85.7156 135.698 96.311Z" fill="#FFC000" transform="matrix(1 0 0 -1 1343.5 1153.22)"/><path d="M1453.61 1243.06 1461.1 1243.31 1468.64 1244.05 1476.05 1245.23 1483.34 1246.84 1496.95 1251.13 1503.36 1253.82 1509.34 1256.79 1514.86 1260.04 1519.87 1263.53 1524.33 1267.27 1528.17 1271.22 1531.33 1275.4 1533.73 1279.79 1535.26 1284.38 1535.75 1288.72 1536.2 1292.71 1536.05 1292.01 1537.37 1295.97 1537.12 1295.41 1539.25 1299.31 1538.97 1298.88 1541.85 1302.68 1541.57 1302.36 1545.14 1306.04 1544.89 1305.8 1549.09 1309.32 1548.85 1309.14 1553.63 1312.47 1553.41 1312.33 1558.71 1315.44 1558.5 1315.33 1564.26 1318.19 1564.06 1318.1 1570.23 1320.69 1569.94 1320.58 1583.25 1324.78 1582.72 1324.66 1588.92 1325.57 1587.91 1332.37 1581.45 1331.42 1567.72 1327.09 1561.3 1324.4 1555.33 1321.43 1549.81 1318.19 1544.79 1314.69 1540.34 1310.96 1536.49 1307 1533.34 1302.83 1530.94 1298.44 1529.41 1293.84 1528.92 1289.5 1528.47 1285.51 1528.62 1286.21 1527.3 1282.25 1527.55 1282.81 1525.42 1278.91 1525.69 1279.34 1522.82 1275.54 1523.09 1275.86 1519.52 1272.18 1519.78 1272.42 1515.58 1268.9 1515.82 1269.09 1511.03 1265.75 1511.26 1265.9 1505.96 1262.78 1506.17 1262.89 1500.4 1260.03 1500.6 1260.12 1494.44 1257.53 1494.73 1257.64 1481.41 1253.44 1481.7 1253.52 1474.67 1251.96 1474.87 1252 1467.66 1250.85 1467.87 1250.88 1460.55 1250.17 1460.77 1250.18 1453.39 1249.94ZM1585.51 1314.77 1611.17 1331.72 1582.22 1342.07Z" fill="#FFC000"/><path d="M0.0842318-3.43647 8.27727-3.23565 16.5228-2.64188 32.4049-0.409801 40.0722 1.19958 47.3882 3.08856 54.3313 5.24191 60.8427 7.63779 66.865 10.2566 72.3421 13.0822 77.2196 16.1047 81.4435 19.3245 84.9552 22.7587 87.6749 26.4457 89.4666 30.4267 90.0346 34.1344 90.5316 37.3791 90.2684 36.4888 91.7173 39.7081 91.349 39.0783 93.6862 42.2468 93.3233 41.8298 96.4855 44.9221 96.166 44.6459 100.09 47.6368 99.8164 47.4486 104.438 50.3126 104.203 50.1796 109.459 52.8912 109.254 52.7938 115.081 55.3278 114.898 55.2541 121.233 57.585 121.064 57.5278 127.843 59.6303 127.684 59.5852 134.844 61.4338 134.691 61.398 142.168 62.9674 141.847 62.9158 150.827 63.929 150.056 70.7606 140.915 69.7292 133.201 68.1102 125.885 66.2212 118.942 64.0679 112.431 61.672 106.408 59.0532 100.931 56.2276 96.0539 53.2051 91.8299 49.9853 88.3182 46.5512 85.5986 42.8642 83.8069 38.8832 83.2389 35.1755 82.7418 31.9308 83.005 32.8211 81.5561 29.6018 81.9245 30.2315 79.5872 27.063 79.9501 27.4801 76.788 24.3877 77.1075 24.6639 73.1839 21.673 73.4571 21.8612 68.8355 18.9972 69.0701 19.1302 63.814 16.4185 64.0192 16.516 58.192 13.982 58.3757 14.0557 52.0408 11.7248 52.2096 11.7819 45.4305 9.67947 45.5894 9.7246 38.4296 7.87594 38.5828 7.91179 31.1058 6.34234 31.3335 6.38219 15.6814 4.18243 15.9129 4.207 7.86472 3.62745 8.02739 3.63529-0.0842318 3.43647ZM147.054 53.2525 173.273 69.3097 144.696 80.6512Z" fill="#FFC000" transform="matrix(-1 1.22465e-16 1.22465e-16 1 1155.77 1146.5)"/><path d="M0.180436-3.43276 7.26238-3.06051 14.4494-1.95066 21.5034-0.165316 28.3722 2.24465 35.0045 5.23002 41.3495 8.74317 47.3559 12.738 52.9724 17.1696 58.1468 21.9948 62.8257 27.1711 66.9544 32.6577 70.4759 38.4142 73.3305 44.4005 75.4545 50.5753 76.7804 56.8933 77.2204 63.0524 77.6438 68.9788 77.5792 68.5177 78.8133 74.3977 78.6997 73.9856 80.6904 79.7729 80.5426 79.4115 83.2359 85.0597 83.0655 84.7454 86.4073 90.2082 86.2217 89.9352 90.1581 95.1661 89.9615 94.928 94.4384 99.8808 94.2326 99.6718 99.1959 104.3 98.9809 104.116 104.377 108.373 104.151 108.209 109.925 112.049 109.686 111.904 115.785 115.281 115.53 115.154 121.899 118.02 121.176 117.787 125.8 118.731 124.424 125.467 119.426 124.446 112.579 121.365 106.234 117.851 100.227 113.857 94.6109 109.425 89.4366 104.6 84.7577 99.4235 80.629 93.9369 77.1074 88.1804 74.2529 82.1941 72.1289 76.0194 70.8029 69.7014 70.3629 63.5423 69.9395 57.6159 70.0041 58.077 68.77 52.1969 68.8837 52.609 66.893 46.8217 67.0407 47.1831 64.3474 41.5349 64.5179 41.8492 61.176 36.3864 61.3616 36.6594 57.4252 31.4284 57.6218 31.6666 53.1449 26.7138 53.3507 26.9227 48.3874 22.2944 48.6025 22.479 43.2068 18.2216 43.4325 18.3852 37.6585 14.5451 37.897 14.6901 31.7988 11.3135 32.0529 11.4408 25.6844 8.57419 25.9573 8.68325 19.3726 6.37296 19.6673 6.46174 12.9204 4.75414 13.2393 4.81895 6.38435 3.76039 6.72852 3.79592-0.180436 3.43276ZM123.315 107.718 147.583 126.595 117.92 134.683Z" fill="#FFC000" transform="matrix(-1 1.22465e-16 1.22465e-16 1 1215.08 1278.5)"/><path d="M1336.64 1357.66 1336.23 1366.23 1335.01 1374.88 1333.05 1383.37 1330.39 1391.65 1327.1 1399.65 1323.23 1407.31 1318.82 1414.57 1313.93 1421.35 1308.6 1427.61 1302.88 1433.27 1296.81 1438.27 1290.44 1442.54 1283.82 1446 1276.97 1448.57 1269.96 1450.18 1263.12 1450.72 1256.53 1451.23 1257.04 1451.16 1250.5 1452.66 1250.94 1452.53 1244.51 1454.95 1244.89 1454.78 1238.61 1458.06 1238.93 1457.86 1232.86 1461.93 1233.13 1461.73 1227.32 1466.52 1227.55 1466.31 1222.05 1471.76 1222.25 1471.54 1217.1 1477.58 1217.27 1477.36 1212.54 1483.93 1212.69 1483.7 1208.42 1490.73 1208.55 1490.49 1204.8 1497.92 1204.91 1497.67 1201.73 1505.42 1201.88 1504.94 1199.33 1515.26 1192.65 1513.61 1195.27 1503.04 1198.6 1494.93 1202.48 1487.27 1206.89 1480.02 1211.78 1473.23 1217.11 1466.97 1222.83 1461.31 1228.89 1456.31 1235.26 1452.05 1241.89 1448.59 1248.74 1446.01 1255.74 1444.4 1262.59 1443.86 1269.17 1443.35 1268.67 1443.43 1275.21 1441.92 1274.77 1442.06 1281.2 1439.64 1280.82 1439.81 1287.1 1436.53 1286.77 1436.72 1292.85 1432.65 1292.57 1432.86 1298.39 1428.07 1298.16 1428.28 1303.66 1422.83 1303.46 1423.04 1308.61 1417 1308.43 1417.22 1313.17 1410.66 1313.02 1410.88 1317.28 1403.86 1317.16 1404.09 1320.91 1396.67 1320.8 1396.91 1323.98 1389.16 1323.89 1389.42 1326.46 1381.41 1326.38 1381.68 1328.28 1373.47 1328.22 1373.77 1329.4 1365.43 1329.37 1365.74 1329.77 1357.34ZM1210.28 1512 1192.5 1537.08 1183.1 1507.81Z" fill="#FFC000"/><path d="M1425 1412 1759.08 1916.94" stroke="#E97132" stroke-width="10.3125" stroke-miterlimit="8" stroke-dasharray="82.5 30.9375" fill="none" fill-rule="evenodd"/><path d="M1660.36 1301.17 2139.1 1425.17 2137.37 1431.82 1658.64 1307.83ZM2137.25 1414.03 2160.42 1434.24 2130.35 1440.65Z" fill="#FFC000"/><path d="M1708.34 1101.17 2230.69 1233.28 2229.01 1239.95 1706.66 1107.83ZM2228.78 1222.16 2252.07 1242.24 2222.03 1248.82Z" fill="#FFC000"/><path d="M2.395-2.46584 222.182 211.007 217.392 215.938-2.395 2.46584ZM226.079 200.416 236.226 229.439 206.919 220.143Z" fill="#FFC000" transform="matrix(-1 0 0 1 969.726 1267.5)"/><path d="M2.91002-1.8298 113.401 173.889 107.581 177.549-2.91002 1.8298ZM119.691 164.52 122.689 195.119 96.4108 179.158Z" fill="#FFC000" transform="matrix(-1 0 0 1 1064.19 1475.5)"/><path d="M3.0543-1.57723 86.5829 160.176 80.4743 163.33-3.0543 1.57723ZM93.6429 151.372 94.0435 182.115 69.2085 163.989Z" fill="#FFC000" transform="matrix(-1 0 0 1 1192.54 1564.5)"/><path d="M0 0 175.163 159.117" stroke="#E97132" stroke-width="10.3125" stroke-miterlimit="8" fill="none" fill-rule="evenodd" transform="matrix(-0.620463 0.784236 0.784236 0.620463 698.302 353.041)"/><path d="M0 0 89.9799 87.9527" stroke="#E97132" stroke-width="10.3125" stroke-miterlimit="8" stroke-dasharray="10.3125 10.3125" fill="none" fill-rule="evenodd" transform="matrix(-0.620463 0.784236 0.784236 0.620463 718.601 605.204)"/><path d="M0 0 294.934 275.169" stroke="#E97132" stroke-width="10.3125" stroke-miterlimit="8" fill="none" fill-rule="evenodd" transform="matrix(-0.620463 0.784236 0.784236 0.620463 731.747 730.341)"/><path d="M0 0 124.972 133.535" stroke="#E97132" stroke-width="10.3125" stroke-miterlimit="8" stroke-dasharray="10.3125 10.3125" fill="none" fill-rule="evenodd" transform="matrix(-0.620463 0.784236 0.784236 0.620463 765.242 1145.67)"/><path d="M3.28854-1.00096 240.896 779.631 234.318 781.633-3.28854 1.00096ZM249.426 772.242 244.28 802.554 223.118 780.25Z" fill="#FFC000" transform="matrix(-1 0 0 1 2290.78 1249.5)"/><path d="M3.2677-1.06703 194.271 583.867 187.736 586.001-3.2677 1.06703ZM202.651 576.309 198.117 606.719 176.51 584.845Z" fill="#FFC000" transform="matrix(-1 0 0 1 2173.62 1451.5)"/><path d="M1118.6 1748.24 1626.57 1919.92 1624.37 1926.44 1116.4 1754.76ZM1625.53 1908.69 1647.18 1930.52 1616.72 1934.74Z" fill="#FFC000"/><path d="M950.157 1659.49 1562.55 1996.51 1559.23 2002.53 946.843 1665.51ZM1563.5 1985.26 1580.97 2010.57 1550.25 2009.35Z" fill="#FFC000"/><path d="M777.612 1491.25 1808.37 1843.47 1806.14 1849.97 775.389 1497.75ZM1807.36 1832.22 1828.93 1854.13 1798.46 1858.24Z" fill="#FFC000"/><path d="M862.502 1638.21 1680.26 1887.33 1678.25 1893.9 860.498 1644.79ZM1678.88 1876.13 1701.18 1897.29 1670.86 1902.43Z" fill="#FFC000"/><text font-family="Times New Roman,Times New Roman_MSFontService,sans-serif" font-weight="400" font-size="73" transform="matrix(0.985036 -0.17235 0.17235 0.985036 1618.49 609)">Irradiância Extraterrestre</text><path d="M637.5 296.5C637.5 265.02 663.244 239.5 695 239.5 726.756 239.5 752.5 265.02 752.5 296.5 752.5 327.98 726.756 353.5 695 353.5 663.244 353.5 637.5 327.98 637.5 296.5Z" stroke="#FFC000" stroke-width="6.875" stroke-miterlimit="8" fill="#FFFF00" fill-rule="evenodd"/><path d="M2041.52 2059.95 1903.19 1948.55 1907.5 1943.2 2045.83 2054.59ZM1900.29 1959.46 1887.5 1931.5 1917.54 1938.04Z" fill="#FFC000"/><path d="M1981.82 2059.72 1819.41 1993.35 1822.01 1986.99 1984.42 2053.35ZM1819.76 2004.63 1799.5 1981.5 1830.16 1979.17Z" fill="#FFC000"/><path d="M1181.37 1195.89 1413.34 1139.02 1442.43 1257.68 1210.46 1314.56Z" stroke="#E97132" stroke-width="6.875" stroke-miterlimit="8" fill="#FFFFFF" fill-rule="evenodd"/><text font-family="Times New Roman,Times New Roman_MSFontService,sans-serif" font-weight="400" font-size="73" transform="matrix(0.971236 -0.23812 0.23812 0.971236 1234.25 1273)">Feixe</text><path d="M768.881 1456.77 1016.84 1395.97 1045.94 1514.64 797.975 1575.43Z" stroke="#E97132" stroke-width="6.875" stroke-miterlimit="8" fill="#FFFFFF" fill-rule="evenodd"/><text font-family="Times New Roman,Times New Roman_MSFontService,sans-serif" font-weight="400" font-size="73" transform="matrix(0.971236 -0.23812 0.23812 0.971236 821.766 1534)">Feixe</text><text font-family="Times New Roman,Times New Roman_MSFontService,sans-serif" font-weight="400" font-size="73" transform="matrix(1 0 0 1 2656.14 2040)">Solo</text><text font-family="Times New Roman,Times New Roman_MSFontService,sans-serif" font-weight="400" font-size="64" transform="matrix(1 0 0 1 1708.11 1721)">Receptor</text><text font-family="Times New Roman,Times New Roman_MSFontService,sans-serif" font-weight="400" font-size="64" transform="matrix(1 0 0 1 1652.24 1798)">(Módulo FV)</text><rect x="2001.5" y="1879.5" width="289" height="122" stroke="#FFC000" stroke-width="6.875" stroke-miterlimit="8" fill="#FFFFFF"/><text font-family="Times New Roman,Times New Roman_MSFontService,sans-serif" font-weight="400" font-size="73" transform="matrix(1 0 0 1 2034.05 1967)">Albedo</text><rect x="2051.5" y="1531.5" width="298" height="122" stroke="#FFC000" stroke-width="6.875" stroke-miterlimit="8" fill="#FFFFFF"/><text font-family="Times New Roman,Times New Roman_MSFontService,sans-serif" font-weight="400" font-size="73" transform="matrix(1 0 0 1 2083.81 1618)">Difusa</text><path d="M1266.6 1872.91 1433.8 1626.53 1534.9 1695.14 1367.7 1941.52Z" stroke="#FFC000" stroke-width="6.875" stroke-miterlimit="8" fill="#FFFFFF" fill-rule="evenodd"/><text font-family="Times New Roman,Times New Roman_MSFontService,sans-serif" font-weight="400" font-size="73" transform="matrix(0.561536 -0.827452 0.827452 0.561536 1357.53 1895)">Difusa</text><text font-family="Times New Roman,Times New Roman_MSFontService,sans-serif" font-weight="400" font-size="73" transform="matrix(0.992815 -0.119658 0.119658 0.992815 2022.37 922)">Massa de ar na Terra </text><text font-family="Times New Roman,Times New Roman_MSFontService,sans-serif" font-weight="400" font-size="73" transform="matrix(0.992815 -0.119658 0.119658 0.992815 2032.9 1009)">(</text><text font-family="Times New Roman,Times New Roman_MSFontService,sans-serif" font-weight="400" font-size="73" transform="matrix(0.992815 -0.119658 0.119658 0.992815 2057.36 1006)">Aerosol</text><text font-family="Times New Roman,Times New Roman_MSFontService,sans-serif" font-weight="400" font-size="73" transform="matrix(0.992815 -0.119658 0.119658 0.992815 2288.3 978)">, Água, Vapor)</text><path d="M880.5 302 783.496 318.601 783.496 285.399ZM826.155 177.191 769.91 254.201 745.236 230.724ZM695 125.5 712.447 217.797 677.553 217.797ZM563.827 177.191 644.764 230.724 620.089 254.201ZM509.5 302 606.504 285.399 606.504 318.601ZM563.827 426.792 620.089 349.799 644.764 373.276ZM695 478.5 677.553 386.203 712.447 386.203ZM826.155 426.792 745.236 373.276 769.91 349.799ZM634.212 302C634.212 270.056 661.427 244.161 695 244.161 728.572 244.161 755.788 270.056 755.788 302 755.788 333.944 728.572 359.839 695 359.839 661.427 359.839 634.212 333.944 634.212 302Z" stroke="#FFC000" stroke-width="6.875" stroke-miterlimit="8" fill="#FFFF00" fill-rule="evenodd"/></g></svg>