<svg width="3171" height="2607" xmlns="http://www.w3.org/2000/svg" xmlns:xlink="http://www.w3.org/1999/xlink" xml:space="preserve" overflow="hidden"><g transform="translate(-512 128)"><path d="M0 0 212.734 127.159" stroke="#156082" stroke-width="6.875" stroke-miterlimit="8" fill="none" fill-rule="evenodd" transform="matrix(-1 0 0 1 1605.23 827.5)"/><path d="M1500.51 840.338 1509.16 814.236 1512.42 815.317 1503.77 841.42ZM1512.63 804.478 1513.8 801.244 1517.03 802.41 1515.87 805.644ZM1517.29 791.542 1520.67 782.164 1527.05 765.787 1530.26 767.035 1523.91 783.329 1520.53 792.708ZM1530.8 756.178 1532.04 752.975 1535.25 754.223 1534 757.426ZM1536.03 743.415 1544.89 722.273 1546.79 718.062 1549.92 719.473 1548.06 723.602 1539.2 744.745ZM1551.02 708.658 1552.43 705.523 1555.57 706.934 1554.16 710.069ZM1556.66 696.119 1558.09 692.941 1568.53 671.261 1571.62 672.752 1561.23 694.352 1559.8 697.53ZM1573.07 661.955 1574.64 658.897 1577.7 660.467 1576.13 663.525ZM1579.35 649.722 1586.61 635.567 1592.19 625.356 1595.2 627.004 1589.67 637.136 1582.41 651.292ZM1597.13 616.305 1598.78 613.288 1601.79 614.936 1600.15 617.953ZM1603.83 604.246 1617.62 580.457 1620.59 582.181 1606.8 605.971ZM1623.03 571.626 1624.83 568.698 1627.76 570.498 1625.96 573.426ZM1630.23 559.912 1634.53 552.914 1645.07 536.712 1647.96 538.587 1637.46 554.714 1633.16 561.712ZM1650.7 528.068 1651.84 526.321 1652.63 525.169 1655.46 527.117 1654.72 528.195 1653.58 529.943ZM1658.47 516.673 1669.78 500.227 1674.24 494.092 1677.02 496.112 1672.62 502.175 1661.3 518.621ZM1680.3 485.748 1682.32 482.967 1685.1 484.988 1683.08 487.769ZM1688.41 474.589 1705.14 452.764 1707.87 454.856 1691.14 476.68ZM1711.57 444.646 1713.73 441.973 1716.41 444.134 1714.24 446.807ZM1720.22 433.953 1727.4 425.067 1737.85 412.799 1740.47 415.028 1730.07 427.228 1722.89 436.114ZM1744.54 404.949 1746.77 402.333 1749.39 404.562 1747.16 407.179ZM1753.66 394.598 1768.84 377.683 1772.15 374.187 1774.65 376.549 1771.4 379.98 1756.22 396.895ZM1779.24 366.695 1781.6 364.197 1784.1 366.559 1781.74 369.057ZM1788.69 356.705 1790.45 354.846 1808.08 337.146 1810.52 339.573 1792.94 357.208 1791.18 359.067ZM1815.46 329.882 1817.95 327.511 1820.32 330 1817.83 332.371ZM1825.42 320.398 1835.35 310.939 1845.61 301.665 1847.91 304.215 1837.72 313.428 1827.79 322.887ZM1853.26 294.75 1855.81 292.445 1858.11 294.995 1855.56 297.3ZM1863.61 285.628 1882.45 269.474 1884.56 267.755 1886.73 270.422 1884.69 272.083 1865.84 288.238ZM1892.57 261.251 1895.23 259.083 1897.4 261.751 1894.73 263.919ZM1903.24 252.58 1906.8 249.687 1924.99 235.683 1927.09 238.407 1908.96 252.355 1905.41 255.247ZM1933.23 229.406 1936.01 227.382 1938.03 230.161 1935.25 232.184ZM1944.34 221.311 1957.03 212.068 1966.79 205.35 1968.74 208.182 1959.06 214.847 1946.37 224.089ZM1975.29 199.503 1978.12 197.553 1980.07 200.385 1977.23 202.334ZM1986.72 191.78 2009.25 177.136 2009.82 176.786 2011.62 179.718 2011.13 180.019 1988.59 194.663ZM2018.62 171.401 2021.55 169.606 2023.34 172.538 2020.41 174.333ZM2030.34 164.221 2036.08 160.709 2054.12 150.317 2055.84 153.295 2037.87 163.641 2032.14 167.152ZM2063.06 145.17 2063.37 144.99 2066.12 143.504 2067.75 146.528 2065.08 147.969 2064.77 148.148ZM2075.19 138.6 2091.11 129.993 2099.54 125.727 2101.09 128.794 2092.75 133.017 2076.82 141.624ZM2108.74 121.07 2111.81 119.518 2113.36 122.585 2110.29 124.137ZM2121.08 114.888 2144.83 103.664 2146.3 106.772 2122.54 117.996ZM1527.16 821.114 1501.07 844.117 1493.89 810.083C1493.69 809.154 1494.28 808.242 1495.21 808.046 1496.14 807.85 1497.05 808.445 1497.25 809.373L1503.82 840.524 1501 839.59 1524.88 818.536C1525.6 817.908 1526.68 817.976 1527.31 818.688 1527.94 819.4 1527.87 820.486 1527.16 821.114ZM2114 100.747 2148.65 103.761 2128.97 132.441C2128.44 133.224 2127.37 133.423 2126.58 132.886 2125.8 132.349 2125.6 131.279 2126.14 130.496L2144.15 104.246 2145.42 106.93 2113.7 104.172C2112.76 104.089 2112.06 103.256 2112.14 102.311 2112.22 101.365 2113.05 100.665 2114 100.747Z" fill="#E97132"/><path d="M1445.52 1387 1444.03 1373.33 1447.45 1372.96 1448.94 1386.62ZM1442.91 1363.04 1442.61 1359.62 1446.04 1359.32 1446.34 1362.74ZM1441.71 1349.34 1440.58 1336.57 1440.52 1335.61 1443.95 1335.38 1444.01 1336.27 1445.13 1349.04ZM1439.83 1325.32 1439.61 1321.89 1443.04 1321.66 1443.26 1325.09ZM1438.92 1311.6 1438.79 1309.6 1438.25 1297.83 1441.68 1297.67 1442.22 1309.37 1442.35 1311.37ZM1437.78 1287.53 1437.63 1284.09 1441.06 1283.94 1441.22 1287.37ZM1437.34 1273.75 1437.01 1260 1440.45 1259.92 1440.78 1273.67ZM1436.88 1249.66 1436.87 1246.22 1440.31 1246.21 1440.32 1249.65ZM1436.84 1235.91 1436.81 1228.61 1436.93 1222.12 1440.37 1222.18 1440.25 1228.6 1440.28 1235.9ZM1437.12 1211.81 1437.18 1208.37 1440.61 1208.44 1440.55 1211.87ZM1437.44 1198.03 1437.97 1184.29 1441.41 1184.42 1440.87 1198.16ZM1438.39 1173.95 1438.6 1170.52 1442.03 1170.72 1441.82 1174.16ZM1439.22 1160.22 1439.97 1147.72 1440.07 1146.46 1443.5 1146.74 1443.4 1147.93 1442.65 1160.43ZM1440.91 1136.19 1441.19 1132.76 1444.61 1133.04 1444.34 1136.46ZM1442.03 1122.48 1442.16 1120.83 1443.4 1108.76 1446.82 1109.11 1445.59 1121.11 1445.45 1122.76ZM1444.45 1098.51 1444.8 1095.09 1448.22 1095.44 1447.87 1098.86ZM1446.05 1084.81 1447.75 1071.17 1451.16 1071.59 1449.47 1085.24ZM1449.15 1060.92 1449.65 1057.51 1453.05 1058.01 1452.56 1061.41ZM1451.14 1047.31 1452.13 1040.48 1453.27 1033.69 1456.66 1034.26 1455.53 1040.98 1454.54 1047.8ZM1454.97 1023.52 1455.54 1020.13 1458.93 1020.7 1458.36 1024.09ZM1457.33 1009.94 1459.88 996.425 1463.26 997.064 1460.7 1010.57ZM1461.83 986.261 1462.54 982.898 1465.9 983.608 1465.19 986.972ZM1464.67 972.808 1466.49 964.182 1469.86 964.893 1468.03 973.519ZM1461.76 1358.43 1447.6 1390.2 1426.91 1362.24C1426.35 1361.48 1426.51 1360.4 1427.27 1359.84 1428.04 1359.27 1429.11 1359.43 1429.68 1360.2L1448.61 1385.79 1445.66 1386.11 1458.62 1357.03C1459.01 1356.16 1460.02 1355.77 1460.89 1356.16 1461.76 1356.55 1462.15 1357.56 1461.76 1358.43ZM1445.52 986.973 1468.88 961.2 1479.82 994.219C1480.12 995.12 1479.63 996.093 1478.73 996.391 1477.82 996.69 1476.85 996.201 1476.55 995.3L1466.54 965.078 1469.45 965.692 1448.07 989.281C1447.43 989.985 1446.34 990.038 1445.64 989.401 1444.94 988.763 1444.88 987.676 1445.52 986.973Z" fill="#E97132"/><path d="M0 0 2950.55 18.866" stroke="#000000" stroke-width="6.875" stroke-miterlimit="8" fill="none" fill-rule="evenodd" transform="matrix(-1 0 0 1 3507.05 1238.5)"/><path d="M0 0 1913.12 1844.95" stroke="#000000" stroke-width="6.875" stroke-miterlimit="8" fill="none" fill-rule="evenodd" transform="matrix(-1 0 0 1 3110.62 332.5)"/><path d="M0 0 3.40863 2564.83" stroke="#000000" stroke-width="6.875" stroke-miterlimit="8" fill="none" fill-rule="evenodd" transform="matrix(-1 0 0 1 2154.91 -89.4999)"/><path d="M972.5 1246C972.5 610.044 1500.13 94.5 2151 94.5 2801.87 94.5 3329.5 610.044 3329.5 1246 3329.5 1881.96 2801.87 2397.5 2151 2397.5 1500.13 2397.5 972.5 1881.96 972.5 1246Z" stroke="#4EA72E" stroke-width="6.875" stroke-miterlimit="8" fill="none" fill-rule="evenodd"/><path d="M978.5 1245.5C978.5 1146.64 1505.24 1066.5 2155 1066.5 2804.76 1066.5 3331.5 1146.64 3331.5 1245.5 3331.5 1344.36 2804.76 1424.5 2155 1424.5 1505.24 1424.5 978.5 1344.36 978.5 1245.5Z" stroke="#156082" stroke-width="4.58333" stroke-miterlimit="8" fill="none" fill-rule="evenodd"/><text font-family="Times New Roman,Times New Roman_MSFontService,sans-serif" font-weight="400" font-size="73" transform="matrix(1 0 0 1 2168.24 1342)">Terra</text><text font-family="Times New Roman,Times New Roman_MSFontService,sans-serif" font-weight="400" font-size="73" transform="matrix(1 0 0 1 556.998 1237)">Observador</text><text font-family="Times New Roman,Times New Roman_MSFontService,sans-serif" font-weight="400" font-size="73" transform="matrix(0.705432 -0.708777 0.708777 0.705432 2494.14 893)">Eixo celestial da Terra</text><path d="M148.702 1567.03C65.8018 1562.97-0.77109 1208.89 0.00730231 776.176 0.194399 672.168 4.34698 569.395 12.2229 473.851" stroke="#FFC000" stroke-width="4.58333" stroke-miterlimit="8" fill="none" fill-rule="evenodd" transform="matrix(0.90906 -0.416665 -0.416665 -0.90906 1907.36 1856.82)"/><path d="M307.172 783.93C310.758 1235.58 244.932 1617.2 160.146 1636.29 157.311 1636.93 154.473 1637.15 151.636 1636.96" stroke="#FFC000" stroke-width="4.58333" stroke-linejoin="round" stroke-miterlimit="10" stroke-dasharray="18.3333 13.75" fill="none" fill-rule="evenodd" transform="matrix(0.90906 -0.416665 -0.416665 -0.90906 1925.11 1923.38)"/><text font-family="Times New Roman,Times New Roman_MSFontService,sans-serif" font-weight="400" font-size="55" transform="matrix(1 0 0 1 3363.53 1307)">Norte</text><text font-family="Times New Roman,Times New Roman_MSFontService,sans-serif" font-weight="400" font-size="55" transform="matrix(1 0 0 1 795.304 1310)">Sul</text><path d="M1481.5 897.5 2118.54 1229.28" stroke="#E97132" stroke-width="9.16667" stroke-miterlimit="8" fill="none" fill-rule="evenodd"/><path d="M1423.5 898C1423.5 866.244 1449.24 840.5 1481 840.5 1512.76 840.5 1538.5 866.244 1538.5 898 1538.5 929.756 1512.76 955.5 1481 955.5 1449.24 955.5 1423.5 929.756 1423.5 898Z" stroke="#FFC000" stroke-width="6.875" stroke-miterlimit="8" fill="#FFFF00" fill-rule="evenodd"/><text font-family="Times New Roman,Times New Roman_MSFontService,sans-serif" font-weight="400" font-size="55" transform="matrix(0.742529 -0.669814 0.669814 0.742529 1245.86 2201)">Sul</text><text font-family="Times New Roman,Times New Roman_MSFontService,sans-serif" font-weight="400" font-size="55" transform="matrix(0.752728 -0.658331 0.658331 0.752728 3052.84 467)">Norte</text><path d="M2726.65 2251.13C2689.74 2318.65 2399.11 1925.34 2077.5 1372.65 1757.53 822.784 1527.12 321.723 1561.52 250.574" stroke="#156082" stroke-width="4.58333" stroke-miterlimit="8" fill="none" fill-rule="evenodd"/><path d="M1566.09 248.837C1593.5 169.063 1876.5 550.238 2198.18 1100.22 2519.86 1650.19 2758.42 2160.71 2731 2240.48 2730.14 2242.98 2729.03 2245.02 2727.65 2246.63" stroke="#156082" stroke-width="4.58333" stroke-miterlimit="8" stroke-dasharray="18.3333 13.75" fill="none" fill-rule="evenodd"/><path d="M21.6405 8.28725 194.477 106.015 191.093 111.999 18.2566 14.2718ZM17.1706 25.5046 0 0 30.706 1.56632ZM195.563 94.7819 212.734 120.287 182.028 118.72Z" fill="#156082" transform="matrix(1 0 0 -1 1530.5 870.786)"/><rect x="1349.5" y="1115.5" width="226" height="133" stroke="#E97132" stroke-width="3.4375" stroke-linejoin="round" stroke-miterlimit="10" stroke-dasharray="13.75 10.3125 3.4375 10.3125" fill="#FFFFFF"/><text font-family="Times New Roman,Times New Roman_MSFontService,sans-serif" font-weight="400" font-size="37" transform="matrix(1 0 0 1 1401.97 1167)">Altitude </text><text font-family="Times New Roman,Times New Roman_MSFontService,sans-serif" font-weight="400" font-size="37" transform="matrix(1 0 0 1 1406.82 1220)">Solar </text><text font-family="Times New Roman,Times New Roman_MSFontService,sans-serif" font-weight="400" font-size="46" transform="matrix(1 0 0 1 1493.34 1220)">α</text><rect x="1819.5" y="182.5" width="237" height="134" stroke="#E97132" stroke-width="3.4375" stroke-linejoin="round" stroke-miterlimit="10" stroke-dasharray="13.75 10.3125 3.4375 10.3125" fill="#FFFFFF"/><text font-family="Times New Roman,Times New Roman_MSFontService,sans-serif" font-weight="400" font-size="37" transform="matrix(1 0 0 1 1882.17 234)">Ângulo </text><text font-family="Times New Roman,Times New Roman_MSFontService,sans-serif" font-weight="400" font-size="37" transform="matrix(1 0 0 1 1866.98 287)">Zênite </text><text font-family="Times New Roman,Times New Roman_MSFontService,sans-serif" font-weight="400" font-size="46" transform="matrix(1 0 0 1 1969.53 287)">θ</text><text font-family="Times New Roman,Times New Roman_MSFontService,sans-serif" font-weight="400" font-size="37" transform="matrix(1 0 0 1 1991.3 287)">z </text><text font-family="Times New Roman,Times New Roman_MSFontService,sans-serif" font-weight="400" font-size="73" transform="matrix(1 0 0 1 2168.24 -35)">Zênite </text><text font-family="Times New Roman,Times New Roman_MSFontService,sans-serif" font-weight="400" font-size="73" transform="matrix(1 0 0 1 2168.24 53)">Local</text><path d="M1584.32 784.486 1645.12 752.078 1686.92 830.495 1626.11 862.902Z" stroke="#156082" stroke-width="6.875" stroke-miterlimit="8" fill="#FFFFFF" fill-rule="evenodd"/><text font-family="Times New Roman,Times New Roman_MSFontService,sans-serif" font-weight="400" font-size="46" transform="matrix(0.882479 -0.470352 0.470352 0.882479 1633.57 827)">δ</text><rect x="930.5" y="124.5" width="550" height="92.0001" stroke="#FFC000" stroke-width="3.4375" stroke-linejoin="round" stroke-miterlimit="10" fill="none"/><text font-family="Times New Roman,Times New Roman_MSFontService,sans-serif" font-weight="400" font-size="48" transform="matrix(1 0 0 1 963.467 187)">Trajetória diária do Sol</text><path d="M165.857 1568.16 161.719 1567.5C161.615 1567.48 161.512 1567.45 161.412 1567.42L153.988 1564.77C153.9 1564.73 153.814 1564.69 153.732 1564.65L146.39 1560.57 138.938 1554.95 131.631 1547.97 124.467 1539.65 117.444 1530.02 110.561 1519.12 103.821 1506.97 97.2259 1493.6 90.7813 1479.03 84.4923 1463.29 78.3648 1446.41 72.4053 1428.42 66.6205 1409.33 61.0173 1389.19 55.6026 1368.01 50.3837 1345.82 45.3678 1322.66 40.562 1298.55 35.9739 1273.52 31.6106 1247.59 27.4795 1220.79 23.5881 1193.15 19.9438 1164.71 16.554 1135.48 13.4261 1105.49 10.5675 1074.78 7.98573 1043.37 5.68822 1011.28 3.68241 978.555 2.14971 948.611 5.58272 948.435 7.11347 978.345 9.11694 1011.04 11.4117 1043.09 13.9902 1074.46 16.845 1105.14 19.9686 1135.08 23.3534 1164.27 26.9921 1192.68 30.8769 1220.27 35.0004 1247.02 39.355 1272.9 43.9333 1297.88 48.7274 1321.94 53.7299 1345.04 58.933 1367.16 64.3291 1388.27 69.9102 1408.33 75.6686 1427.33 81.5961 1445.24 87.6844 1462.02 93.9251 1477.64 100.309 1492.08 106.827 1505.3 113.468 1517.29 120.222 1528 127.074 1537.41 134.009 1545.49 141.011 1552.21 148.061 1557.56 155.402 1561.64 155.145 1561.53 162.568 1564.18 162.261 1564.1 166.398 1564.76ZM142.586 1544.96 169.496 1567 137.066 1579.57C136.181 1579.92 135.185 1579.48 134.842 1578.59 134.499 1577.71 134.938 1576.71 135.823 1576.37L165.506 1564.86 165.038 1567.79 140.408 1547.62C139.673 1547.02 139.566 1545.93 140.167 1545.2 140.769 1544.46 141.852 1544.36 142.586 1544.96ZM-12.2758 976.018 3.69186 945.116 22.731 974.226C23.2506 975.021 23.0278 976.086 22.2333 976.605 21.4389 977.125 20.3737 976.902 19.8541 976.108L2.4278 949.464 5.39316 949.312-9.22189 977.596C-9.65765 978.439-10.6945 978.769-11.5378 978.334-12.3812 977.898-12.7115 976.861-12.2758 976.018Z" fill="#FFC000" transform="matrix(0.927761 -0.373176 -0.373176 -0.927761 1767.36 1819.77)"/><path d="M1388.78 371.214 1292.24 218.53 1294.18 217.305 1390.72 369.989ZM1293.2 249.775 1292 215.995 1322 231.572C1322.56 231.863 1322.78 232.555 1322.48 233.117 1322.19 233.678 1321.5 233.897 1320.94 233.606L1292.68 218.934 1294.36 217.877 1295.49 249.693C1295.52 250.326 1295.02 250.857 1294.39 250.879 1293.76 250.902 1293.23 250.407 1293.2 249.775Z" fill="#FFC000"/><path d="M1287.48 629.882 1354.54 614.039 1374.97 700.518 1307.91 716.361Z" stroke="#FFC000" stroke-width="3.4375" stroke-miterlimit="8" fill="#FFFFFF" fill-rule="evenodd"/><text font-family="Times New Roman,Times New Roman_MSFontService,sans-serif" font-weight="400" font-size="46" transform="matrix(0.973206 -0.229936 0.229936 0.973206 1320.14 684)">ω</text><text font-family="Times New Roman,Times New Roman_MSFontService,sans-serif" font-weight="400" font-size="73" transform="matrix(0.447503 0.894283 -0.894283 0.447503 2480.53 1514)">Equador celestial</text><path d="M2117.59 1228.98C2126.48 1211.15 2148.45 1204.05 2166.66 1213.12 2184.87 1222.2 2192.42 1244.01 2183.53 1261.85 2174.64 1279.68 2152.67 1286.78 2134.47 1277.7 2116.26 1268.63 2108.7 1246.81 2117.59 1228.98Z" stroke="#042433" stroke-width="6.875" stroke-miterlimit="8" fill="#156082" fill-rule="evenodd"/><path d="M1430.34 1442.77 1405.62 1439.52 1377.14 1435.55 1349.44 1431.45 1322.53 1427.22 1296.4 1422.87 1271.09 1418.4 1246.59 1413.81 1222.91 1409.12 1200.07 1404.32 1178.08 1399.41 1156.94 1394.4 1136.67 1389.29 1117.27 1384.09 1098.76 1378.8 1081.15 1373.42 1064.44 1367.95 1048.65 1362.4 1033.78 1356.77 1019.84 1351.07 1006.85 1345.29 994.816 1339.44 983.742 1333.53 973.639 1327.54 964.517 1321.49 956.384 1315.36 949.249 1309.17 943.124 1302.9 938.021 1296.56 933.957 1290.13 930.952 1283.61C930.904 1283.51 930.864 1283.4 930.833 1283.29L929.036 1277.01C929.001 1276.89 928.977 1276.76 928.962 1276.64L928.756 1274.84 933.309 1274.31 933.516 1276.12 933.442 1275.75 935.239 1282.03 935.12 1281.7 937.835 1287.69 941.597 1293.69 946.405 1299.7 952.256 1305.71 959.142 1311.7 967.052 1317.67 975.977 1323.6 985.903 1329.48 996.82 1335.32 1008.72 1341.11 1021.58 1346.83 1035.4 1352.49 1050.16 1358.08 1065.86 1363.59 1082.49 1369.03 1100.02 1374.39 1118.46 1379.66 1137.79 1384.85 1158 1389.94 1179.08 1394.94 1201.02 1399.83 1223.8 1404.62 1247.43 1409.31 1271.88 1413.88 1297.16 1418.35 1323.24 1422.69 1350.11 1426.91 1377.78 1431.01 1406.22 1434.98 1430.94 1438.23ZM1406.87 1419.2 1435.15 1441.09 1402.17 1454.94C1401.01 1455.43 1399.66 1454.88 1399.17 1453.71 1398.68 1452.54 1399.23 1451.2 1400.4 1450.71L1429.76 1438.39 1429.24 1442.31 1404.07 1422.83C1403.06 1422.05 1402.88 1420.61 1403.66 1419.61 1404.43 1418.61 1405.87 1418.43 1406.87 1419.2ZM916.13 1302.8 930.514 1270.06 951.938 1298.7C952.696 1299.71 952.489 1301.15 951.476 1301.9 950.462 1302.66 949.026 1302.45 948.268 1301.44L929.197 1275.95 933.131 1275.5 920.327 1304.65C919.818 1305.8 918.466 1306.33 917.307 1305.82 916.148 1305.31 915.621 1303.96 916.13 1302.8Z"/><path d="M1032.91 1324.71 1292.99 1395.18 1269.75 1480.94 1009.67 1410.48Z" stroke="#000000" stroke-width="3.4375" stroke-miterlimit="8" fill="#FFFFFF" fill-rule="evenodd"/><text font-family="Times New Roman,Times New Roman_MSFontService,sans-serif" font-weight="400" font-size="37" transform="matrix(0.965197 0.261523 -0.261523 0.965197 1066.95 1397)">Azimute</text><text font-family="Times New Roman,Times New Roman_MSFontService,sans-serif" font-weight="400" font-size="46" transform="matrix(0.965197 0.261523 -0.261523 0.965197 1199.66 1433)">ψ</text><text font-family="Times New Roman,Times New Roman_MSFontService,sans-serif" font-weight="400" font-size="55" transform="matrix(1 0 0 1 2182.23 1490)">Leste</text><path d="M1535.46 171.125 1567.98 152.806 1604.12 134.11 1640.83 116.748 1678.06 100.728 1715.79 86.0609 1753.96 72.7548 1792.56 60.8193 1831.53 50.2636 1870.85 41.0969 1910.47 33.3285 1950.37 26.9676 1990.5 22.0234 2030.82 18.5052 2071.31 16.4222 2111.92 15.7836 2149.21 16.5305 2149.14 19.9673 2111.97 19.2207 2071.49 19.8551 2031.12 21.9297 1990.92 25.4351 1950.91 30.3622 1911.13 36.7018 1871.63 44.4446 1832.43 53.5816 1793.57 64.1034 1755.09 76.0008 1717.03 89.2648 1679.42 103.886 1642.3 119.855 1605.7 137.163 1569.67 155.801 1537.14 174.12ZM1568.11 174.823 1533.33 174.297 1550.9 144.281C1551.38 143.462 1552.44 143.187 1553.26 143.667 1554.08 144.147 1554.35 145.199 1553.87 146.019L1537.78 173.491 1536.33 170.904 1568.16 171.386C1569.11 171.4 1569.87 172.181 1569.85 173.13 1569.84 174.079 1569.06 174.837 1568.11 174.823ZM2122.9 0.19206 2152.59 18.3173 2122.2 35.2376C2121.37 35.6993 2120.32 35.4014 2119.86 34.572 2119.4 33.7426 2119.7 32.696 2120.53 32.2342L2148.34 16.7472 2148.28 19.7158 2121.11 3.12597C2120.3 2.63134 2120.04 1.57357 2120.54 0.763395 2121.03-0.0467815 2122.09-0.302578 2122.9 0.19206Z" fill="#156082"/><path d="M1514.5 150.5 1566.18 249.394" stroke="#156082" stroke-width="3.4375" stroke-miterlimit="8" fill="none" fill-rule="evenodd"/><path d="M1691.12 38.6457 1922.79-22.4772 1945.74 64.5042 1714.07 125.627Z" stroke="#156082" stroke-width="3.4375" stroke-miterlimit="8" fill="#FFFFFF" fill-rule="evenodd"/><text font-family="Times New Roman,Times New Roman_MSFontService,sans-serif" font-weight="400" font-size="37" transform="matrix(0.966913 -0.255107 0.255107 0.966913 1746.22 87)">Latitude</text><text font-family="Times New Roman,Times New Roman_MSFontService,sans-serif" font-weight="400" font-size="46" transform="matrix(0.966913 -0.255107 0.255107 0.966913 1875.29 53)">ϕ</text></g></svg>