<svg width="3642" height="2355" xmlns="http://www.w3.org/2000/svg" xmlns:xlink="http://www.w3.org/1999/xlink" xml:space="preserve" overflow="hidden"><g transform="translate(-303 -61)"><path d="M2174.5 176.5 2202 2411.56" stroke="#000000" stroke-width="6.875" stroke-miterlimit="8" stroke-dasharray="27.5 20.625" fill="none" fill-rule="evenodd"/><path d="M354.415 1385.18 3805.72 1402.88 3805.69 1409.76 354.379 1392.05ZM358.929 1402.39 331.5 1388.5 359.07 1374.89ZM3801.15 1392.55 3828.58 1406.44 3801.01 1420.05Z"/><text font-family="Times New Roman,Times New Roman_MSFontService,sans-serif" font-weight="400" font-size="64" transform="matrix(1 0 0 1 2068.25 143)">Zênite</text><path d="M15.4609 17.2248 1301.11 1969.22 1295.37 1973 9.71934 21.0064ZM3.64315 30.5293 0 0 26.6094 15.4031ZM1307.19 1959.7 1310.83 1990.23 1284.22 1974.83Z" transform="matrix(-1 0 0 1 2857.33 376.5)"/><path d="M1815.3 1843.49C1425.81 1725.07 1262.38 1430.06 1450.27 1184.58 1591.8 999.663 1900.2 889.289 2224.67 907.427" stroke="#E97132" stroke-width="6.875" stroke-miterlimit="8" stroke-dasharray="27.5 20.625 6.875 20.625" fill="none" fill-rule="evenodd"/><path d="M1537.5 234.5 1546.09 1088.32" stroke="#156082" stroke-width="6.875" stroke-miterlimit="8" stroke-dasharray="27.5 20.625" fill="none" fill-rule="evenodd"/><path d="M1546.5 1080.5 2190.95 1388.7" stroke="#156082" stroke-width="6.875" stroke-miterlimit="8" stroke-dasharray="27.5 20.625" fill="none" fill-rule="evenodd"/><path d="M1537.5 234.5 2188.31 1388.72" stroke="#E97132" stroke-width="6.875" stroke-miterlimit="8" fill="none" fill-rule="evenodd"/><path d="M1492.5 235C1492.5 208.766 1512.65 187.5 1537.5 187.5 1562.35 187.5 1582.5 208.766 1582.5 235 1582.5 261.234 1562.35 282.5 1537.5 282.5 1512.65 282.5 1492.5 261.234 1492.5 235Z" stroke="#FFFF00" stroke-width="6.875" stroke-miterlimit="8" fill="#FFFF00" fill-rule="evenodd"/><text font-family="Times New Roman,Times New Roman_MSFontService,sans-serif" font-weight="400" font-size="55" transform="matrix(1 0 0 1 3625.3 1458)">Norte</text><text font-family="Times New Roman,Times New Roman_MSFontService,sans-serif" font-weight="400" font-size="55" transform="matrix(0.535252 -0.844692 0.844692 0.535252 2817.14 548)">Oeste</text><text font-family="Times New Roman,Times New Roman_MSFontService,sans-serif" font-weight="400" font-size="55" transform="matrix(0.552786 -0.833323 0.833323 0.552786 1640.23 2327)">Leste</text><text font-family="Times New Roman,Times New Roman_MSFontService,sans-serif" font-weight="400" font-size="55" transform="matrix(1 0 0 1 354.603 1462)">Sul</text><rect x="1746.5" y="336.5" width="358" height="167" stroke="#FFC000" stroke-width="3.4375" stroke-linejoin="round" stroke-miterlimit="10" fill="#FFFFFF"/><text font-family="Times New Roman,Times New Roman_MSFontService,sans-serif" font-weight="400" font-size="55" transform="matrix(1 0 0 1 1782.74 406)">Trajetória do </text><text font-family="Times New Roman,Times New Roman_MSFontService,sans-serif" font-weight="400" font-size="55" transform="matrix(1 0 0 1 1888.64 472)">Sol</text><rect x="1262.5" y="1537.5" width="458" height="166" stroke="#E97132" stroke-width="6.875" stroke-miterlimit="8" stroke-dasharray="27.5 20.625 6.875 20.625" fill="#FFFFFF"/><text font-family="Times New Roman,Times New Roman_MSFontService,sans-serif" font-weight="400" font-size="55" transform="matrix(1 0 0 1 1295.23 1606)">Projeção da </text><text font-family="Times New Roman,Times New Roman_MSFontService,sans-serif" font-weight="400" font-size="55" transform="matrix(1 0 0 1 1295.23 1672)">trajetória do Sol</text><path d="M950.149 1376.8 952.916 1365.55 956.6 1354.36 961.115 1343.51 966.428 1333.03 972.506 1322.97 979.318 1313.35 986.831 1304.2 995.013 1295.55 1003.83 1287.43 1013.26 1279.87 1023.25 1272.91 1033.79 1266.57 1044.84 1260.89 1056.36 1255.89 1068.34 1251.61 1074.18 1249.93 1076.06 1256.54 1070.65 1258.08 1059.1 1262.2 1047.98 1267.01 1037.33 1272.47 1027.18 1278.56 1017.55 1285.24 1008.48 1292.49 1000 1300.27 992.142 1308.56 984.927 1317.32 978.388 1326.53 972.556 1336.15 967.46 1346.15 963.129 1356.51 959.592 1367.2 956.825 1378.44ZM1045.13 1242.02 1081.68 1251.37 1055.55 1278.59C1054.24 1279.95 1052.06 1280 1050.69 1278.68 1049.32 1277.37 1049.28 1275.19 1050.59 1273.82L1072.64 1250.86 1074.27 1256.57 1043.43 1248.68C1041.59 1248.21 1040.48 1246.34 1040.95 1244.5 1041.42 1242.66 1043.29 1241.55 1045.13 1242.02Z"/><path d="M-0.351073 131.299 2.41603 120.054 6.10015 108.858 10.6149 98.0073 15.9279 87.5347 22.0066 77.4712 28.8186 67.8481 36.3315 58.6963 44.5133 50.0462 53.3319 41.9286 62.7554 34.3738 72.752 27.4122 83.2901 21.0742 94.338 15.3902 105.864 10.3906 117.837 6.10598 123.68 4.43279 125.565 11.0444 120.15 12.5803 108.596 16.6994 97.4796 21.5054 86.8298 26.9679 76.6773 33.0565 67.0522 39.7407 57.9846 46.99 49.5046 54.7741 41.6421 63.0624 34.4269 71.8246 27.8885 81.0305 22.0564 90.6502 16.9601 100.654 12.6288 111.012 9.09189 121.696 6.32479 132.942ZM94.6296-3.47962 131.183 5.86827 105.053 33.0854C103.739 34.455 101.563 34.4993 100.193 33.1845 98.8235 31.8697 98.7791 29.6937 100.094 28.3242L122.142 5.35795 123.77 11.0689 92.9263 3.18103C91.087 2.71066 89.9772 0.838317 90.4476-1.00097 90.918-2.84026 92.7903-3.94999 94.6296-3.47962Z" transform="matrix(1 0 0 -1 947.5 1560.5)"/><path d="M1759.82 1374.98 1758.12 1364.36 1757.36 1353.39 1757.58 1342.45 1758.76 1331.59 1760.86 1320.86 1763.86 1310.3 1767.74 1299.98 1772.46 1289.94 1778 1280.23 1784.33 1270.89 1791.42 1261.99 1799.25 1253.56 1807.79 1245.65 1817.02 1238.32 1826.91 1231.62 1831.52 1228.97 1834.93 1234.93 1830.76 1237.31 1821.29 1243.71 1812.46 1250.7 1804.28 1258.24 1796.79 1266.27 1790.01 1274.76 1783.97 1283.64 1778.68 1292.87 1774.17 1302.4 1770.48 1312.19 1767.61 1322.19 1765.59 1332.34 1764.45 1342.6 1764.22 1352.92 1764.9 1363.27 1766.61 1373.9ZM1801.42 1228.25 1839.15 1228.56 1820.3 1261.25C1819.35 1262.89 1817.25 1263.46 1815.61 1262.51 1813.96 1261.56 1813.4 1259.46 1814.35 1257.81L1830.25 1230.23 1833.2 1235.39 1801.36 1235.12C1799.46 1235.11 1797.94 1233.55 1797.95 1231.66 1797.97 1229.76 1799.52 1228.23 1801.42 1228.25Z"/><path d="M1921.96 1258.77 1922.31 1247.12 1923.81 1235.34 1926.42 1223.82 1930.1 1212.62 1934.79 1201.79 1940.45 1191.39 1947.03 1181.48 1954.48 1172.1 1962.76 1163.3 1971.81 1155.14 1981.59 1147.68 1992.06 1140.96 2003.17 1135.03 2014.86 1129.95 2027.11 1125.78 2033.25 1124.22 2034.93 1130.89 2029.32 1132.29 2017.6 1136.26 2006.4 1141.1 1995.77 1146.75 1985.76 1153.15 1976.41 1160.26 1967.76 1168.02 1959.86 1176.38 1952.76 1185.29 1946.49 1194.69 1941.1 1204.53 1936.63 1214.77 1933.12 1225.35 1930.63 1236.22 1929.18 1247.33 1928.83 1258.98ZM2004.46 1115.41 2040.7 1125.89 2013.74 1152.28C2012.39 1153.61 2010.21 1153.59 2008.88 1152.23 2007.55 1150.87 2007.58 1148.7 2008.93 1147.37L2031.68 1125.1 2033.13 1130.86 2002.55 1122.02C2000.72 1121.49 1999.67 1119.58 2000.2 1117.76 2000.73 1115.94 2002.63 1114.88 2004.46 1115.41Z" fill="#156082"/><path d="M-3.06571 203.642-2.17961 192.52-0.766229 181.415 1.15181 170.504 3.56092 159.798 6.4475 149.313 9.79795 139.06 13.5986 129.053 17.8359 119.305 22.4962 109.829 27.5658 100.638 33.0312 91.7452 38.8788 83.1634 51.6149 67.0482 65.7619 52.2651 73.3744 45.3748 81.2303 38.9323 89.3735 32.8919 97.7904 27.2668 106.467 22.07 115.391 17.3148 124.548 13.0143 133.923 9.18176 143.504 5.83037 153.277 2.97335 163.226 0.623929 173.34-1.20471 183.603-2.4994 194.001-3.24706 204.52-3.43467 215.145-3.04928 220.725-2.51891 220.067 4.32454 214.893 3.82108 204.639 3.4393 194.491 3.61047 184.46 4.32194 174.56 5.56117 164.803 7.31567 155.203 9.57301 145.771 12.3208 136.522 15.5467 127.467 19.2384 118.622 23.3835 109.997 27.9696 101.608 32.9843 93.4671 38.4153 85.5878 44.25 77.9836 50.476 70.7254 57.0222 57.007 71.3133 44.5588 87.0368 38.8872 95.3471 33.5846 103.961 28.6644 112.865 24.14 122.048 20.0248 131.496 16.3321 141.198 13.0753 151.14 10.2676 161.31 7.92258 171.696 6.05345 182.286 4.67367 193.066 3.78757 204.188ZM196.565-20.4866 227.187 1.55564 192.927 17.3607C191.203 18.156 189.161 17.4032 188.366 15.6793 187.57 13.9554 188.323 11.9133 190.047 11.118L218.956-2.21855 218.388 3.69268 192.549-14.9069C191.008-16.016 190.658-18.1642 191.767-19.705 192.876-21.2458 195.025-21.5958 196.565-20.4866Z" fill="#E97132" transform="matrix(-0.582144 0.813086 0.813086 0.582144 2011.54 662.487)"/><path d="M840.5 1389C840.5 1121.97 1449.84 905.5 2201.5 905.5 2953.16 905.5 3562.5 1121.97 3562.5 1389 3562.5 1656.03 2953.16 1872.5 2201.5 1872.5 1449.84 1872.5 840.5 1656.03 840.5 1389Z" stroke="#156082" stroke-width="3.4375" stroke-linejoin="round" stroke-miterlimit="10" fill="none" fill-rule="evenodd"/><text font-family="Times New Roman,Times New Roman_MSFontService,sans-serif" font-weight="400" font-size="83" transform="matrix(1 0 0 1 1697.18 1321)">ψ</text><text font-family="Times New Roman,Times New Roman_MSFontService,sans-serif" font-weight="400" font-size="83" transform="matrix(1 0 0 1 1084.69 1589)">+</text><text font-family="Times New Roman,Times New Roman_MSFontService,sans-serif" font-weight="400" font-size="83" transform="matrix(1 0 0 1 1131.09 1589)">ψ</text><text font-family="Times New Roman,Times New Roman_MSFontService,sans-serif" font-weight="400" font-size="83" transform="matrix(1 0 0 1 1091.47 1293)">-</text><text font-family="Times New Roman,Times New Roman_MSFontService,sans-serif" font-weight="400" font-size="83" transform="matrix(1 0 0 1 1118.97 1293)">ψ</text><text font-family="Times New Roman,Times New Roman_MSFontService,sans-serif" font-weight="400" font-size="83" transform="matrix(1 0 0 1 1958.39 737)">θ</text><text font-family="Times New Roman,Times New Roman_MSFontService,sans-serif" font-weight="400" font-size="83" transform="matrix(1 0 0 1 1997.92 737)">z</text><text font-family="Times New Roman,Times New Roman_MSFontService,sans-serif" font-weight="400" font-size="83" transform="matrix(1 0 0 1 1482.53 1102)">b</text><text font-family="Times New Roman,Times New Roman_MSFontService,sans-serif" font-weight="400" font-size="83" transform="matrix(1 0 0 1 1823.94 1843)">a</text><text font-family="Times New Roman,Times New Roman_MSFontService,sans-serif" font-weight="400" font-size="83" transform="matrix(1 0 0 1 2197.49 1476)">O</text><text font-family="Times New Roman,Times New Roman_MSFontService,sans-serif" font-weight="400" font-size="83" transform="matrix(1 0 0 1 1899.63 1188)">α</text><text font-family="Times New Roman,Times New Roman_MSFontService,sans-serif" font-weight="400" font-size="64" transform="matrix(1 0 0 1 3021.5 1372)">Plano do observador</text></g></svg>