<svg width="2843" height="2036" xmlns="http://www.w3.org/2000/svg" xmlns:xlink="http://www.w3.org/1999/xlink" xml:space="preserve" overflow="hidden"><g transform="translate(-772 -211)"><path d="M0 0 731.121 913.19" stroke="#156082" stroke-width="6.875" stroke-miterlimit="8" fill="none" fill-rule="evenodd" transform="matrix(-0.993879 -0.110474 -0.110474 0.993879 2002.75 767.29)"/><path d="M2002.75 767.29 3518.24 935.744" stroke="#156082" stroke-width="6.875" stroke-miterlimit="8" fill="none" fill-rule="evenodd"/><path d="M1175.22 1594.12 2713.95 2017.04" stroke="#156082" stroke-width="6.875" stroke-miterlimit="8" fill="none" fill-rule="evenodd"/><path d="M0 0 679.914 1163.53" stroke="#156082" stroke-width="6.875" stroke-miterlimit="8" fill="none" fill-rule="evenodd" transform="matrix(0.993879 0.110474 0.110474 -0.993879 2713.95 2017.04)"/><path d="M1175.22 1594.12 2708.61 2065.11" stroke="#156082" stroke-width="6.875" stroke-miterlimit="8" fill="none" fill-rule="evenodd"/><path d="M0 0 679.914 1163.53" stroke="#156082" stroke-width="6.875" stroke-miterlimit="8" fill="none" fill-rule="evenodd" transform="matrix(0.993879 0.110474 0.110474 -0.993879 2713.57 2065.11)"/><path d="M0 0 0.000360892 48.3625" stroke="#156082" stroke-width="6.875" stroke-miterlimit="8" fill="none" fill-rule="evenodd" transform="matrix(1 0 0 -1 2713.5 2065.86)"/><path d="M0 0 2.32379 57.6572" stroke="#156082" stroke-width="6.875" stroke-miterlimit="8" fill="none" fill-rule="evenodd" transform="matrix(-1 0 0 1 3515.82 938.5)"/><path d="M20.1581 16.8672 45.9864 49.0302 37.9456 55.4873 12.1174 23.3242ZM65.3576 73.1525 71.8147 81.1933 63.7739 87.6504 57.3168 79.6096ZM91.1859 105.316 117.014 137.479 108.973 143.936 83.1451 111.773ZM136.385 161.601 142.842 169.642 134.802 176.099 128.345 168.058ZM162.214 193.764 188.042 225.927 180.001 232.384 154.173 200.221ZM207.413 250.049 213.87 258.09 205.829 264.547 199.372 256.507ZM233.241 282.212 259.07 314.376 251.029 320.833 225.201 288.67ZM278.441 338.498 284.898 346.539 276.857 352.996 270.4 344.955ZM304.269 370.661 330.097 402.824 322.056 409.281 296.228 377.118ZM349.468 426.946 355.926 434.987 347.885 441.444 341.428 433.403ZM375.297 459.109 401.125 491.273 393.084 497.73 367.256 465.567ZM420.496 515.395 426.953 523.436 418.913 529.893 412.455 521.852ZM446.324 547.558 472.153 579.721 464.112 586.178 438.284 554.015ZM491.524 603.843 497.981 611.884 489.94 618.341 483.483 610.3ZM517.352 636.006 543.181 668.169 535.14 674.627 509.311 642.464ZM562.552 692.292 569.009 700.333 560.968 706.79 554.511 698.749ZM588.38 724.455 614.208 756.618 606.168 763.075 580.339 730.912ZM633.58 780.74 640.037 788.781 631.996 795.238 625.539 787.197ZM659.408 812.903 685.236 845.067 677.195 851.524 651.367 819.361ZM704.607 869.189 711.064 877.23 703.024 883.687 696.567 875.646ZM730.436 901.352 756.264 933.515 748.223 939.972 722.395 907.809ZM775.635 957.637 782.092 965.678 774.051 972.135 767.594 964.094ZM801.463 989.8 827.292 1021.96 819.251 1028.42 793.423 996.258ZM846.663 1046.09 853.12 1054.13 845.079 1060.58 838.622 1052.54ZM872.491 1078.25 898.319 1110.41 890.279 1116.87 864.45 1084.71ZM917.69 1134.53 924.147 1142.58 916.107 1149.03 909.65 1140.99ZM943.519 1166.7 969.347 1198.86 961.306 1205.32 935.478 1173.15ZM988.718 1222.98 995.175 1231.02 987.134 1237.48 980.677 1229.44ZM1014.55 1255.15 1040.37 1287.31 1032.33 1293.77 1006.51 1261.6ZM1059.75 1311.43 1066.2 1319.47 1058.16 1325.93 1051.7 1317.89ZM1085.57 1343.59 1111.4 1375.76 1103.36 1382.21 1077.53 1350.05ZM1130.77 1399.88 1137.23 1407.92 1129.19 1414.38 1122.73 1406.34ZM1156.6 1432.04 1182.43 1464.21 1174.39 1470.66 1148.56 1438.5ZM1201.8 1488.33 1208.26 1496.37 1200.22 1502.83 1193.76 1494.79ZM1227.63 1520.49 1253.46 1552.65 1245.42 1559.11 1219.59 1526.95ZM1272.83 1576.78 1279.29 1584.82 1271.25 1591.27 1264.79 1583.23ZM1298.66 1608.94 1324.49 1641.1 1316.44 1647.56 1290.62 1615.4ZM1343.86 1665.22 1350.31 1673.27 1342.27 1679.72 1335.82 1671.68ZM1369.68 1697.39 1377.5 1707.11 1369.45 1713.57 1361.64 1703.84ZM7.31014 33.8079 0 0 31.4324 14.4366ZM1382.31 1696.64 1389.62 1730.44 1358.18 1716.01Z" transform="matrix(1 0 0 -1 1633 2216.44)"/><path d="M1363.27 1106.43 1403.57 1115.2 1401.38 1125.28 1361.08 1116.51ZM1433.81 1121.77 1443.88 1123.96 1441.69 1134.04 1431.61 1131.85ZM1474.11 1130.54 1514.42 1139.3 1512.23 1149.38 1471.92 1140.61ZM1544.65 1145.87 1554.73 1148.07 1552.54 1158.14 1542.46 1155.95ZM1584.96 1154.64 1625.27 1163.4 1623.08 1173.48 1582.77 1164.72ZM1655.5 1169.98 1665.58 1172.17 1663.39 1182.24 1653.31 1180.05ZM1695.81 1178.74 1736.12 1187.5 1733.93 1197.58 1693.62 1188.82ZM1766.35 1194.08 1776.42 1196.27 1774.23 1206.35 1764.16 1204.15ZM1806.66 1202.84 1846.96 1211.61 1844.77 1221.68 1804.46 1212.92ZM1877.2 1218.18 1887.27 1220.37 1885.08 1230.45 1875 1228.26ZM1917.5 1226.94 1957.81 1235.71 1955.62 1245.79 1915.31 1237.02ZM1988.04 1242.28 1998.12 1244.47 1995.93 1254.55 1985.85 1252.36ZM2028.35 1251.05 2068.66 1259.81 2066.47 1269.89 2026.16 1261.12ZM2098.89 1266.38 2108.97 1268.57 2106.78 1278.65 2096.7 1276.46ZM2139.2 1275.15 2179.51 1283.91 2177.32 1293.99 2137.01 1285.23ZM2209.74 1290.49 2219.81 1292.68 2217.62 1302.75 2207.55 1300.56ZM2250.05 1299.25 2290.35 1308.01 2288.16 1318.09 2247.85 1309.33ZM2320.59 1314.59 2330.66 1316.78 2328.47 1326.86 2318.39 1324.66ZM2360.89 1323.35 2401.2 1332.12 2399.01 1342.19 2358.7 1333.43ZM2431.43 1338.69 2441.51 1340.88 2439.32 1350.96 2429.24 1348.77ZM2471.74 1347.45 2512.05 1356.22 2509.86 1366.3 2469.55 1357.53ZM2542.28 1362.79 2552.36 1364.98 2550.17 1375.06 2540.09 1372.87ZM2582.59 1371.56 2622.9 1380.32 2620.71 1390.4 2580.4 1381.63ZM2653.13 1386.89 2663.2 1389.08 2661.01 1399.16 2650.94 1396.97ZM2693.44 1395.66 2733.74 1404.42 2731.55 1414.5 2691.24 1405.74ZM2763.98 1411 2774.05 1413.19 2771.86 1423.26 2761.78 1421.07ZM2804.28 1419.76 2844.59 1428.52 2842.4 1438.6 2802.09 1429.84ZM2874.82 1435.1 2884.9 1437.29 2882.71 1447.37 2872.63 1445.17ZM2915.13 1443.86 2955.44 1452.63 2953.25 1462.7 2912.94 1453.94ZM2985.67 1459.2 2995.75 1461.39 2993.56 1471.47 2983.48 1469.28ZM3025.98 1467.96 3066.29 1476.73 3064.1 1486.81 3023.79 1478.04ZM3096.52 1483.3 3106.59 1485.49 3104.4 1495.57 3094.33 1493.38ZM3136.83 1492.07 3177.13 1500.83 3174.94 1510.91 3134.63 1502.14ZM3207.36 1507.4 3217.44 1509.59 3215.25 1519.67 3205.17 1517.48ZM3247.67 1516.17 3287.98 1524.93 3285.79 1535.01 3245.48 1526.25ZM3318.21 1531.51 3328.29 1533.7 3326.1 1543.77 3316.02 1541.58ZM3358.52 1540.27 3398.83 1549.03 3396.64 1559.11 3356.33 1550.35ZM3429.06 1555.61 3439.14 1557.8 3436.95 1567.88 3426.87 1565.68ZM3469.37 1564.37 3509.68 1573.14 3507.49 1583.21 3467.18 1574.45ZM1363.94 1127.69 1337 1106 1370.52 1097.46ZM3513.24 1563.36 3540.18 1585.05 3506.67 1593.59Z"/><text font-family="Times New Roman,Times New Roman_MSFontService,sans-serif" font-weight="400" font-size="73" transform="matrix(0.637872 -0.770143 0.770143 0.637872 2785.01 722)">Norte</text><text font-family="Times New Roman,Times New Roman_MSFontService,sans-serif" font-weight="400" font-size="73" transform="matrix(0.594434 -0.804145 0.804145 0.594434 1674.85 2115)">Sul</text><text font-family="Times New Roman,Times New Roman_MSFontService,sans-serif" font-weight="400" font-size="73" transform="matrix(0.98814 0.153557 -0.153557 0.98814 3326.01 1504)">Leste</text><text font-family="Times New Roman,Times New Roman_MSFontService,sans-serif" font-weight="400" font-size="73" transform="matrix(0.995504 0.0947185 -0.0947185 0.995504 1418.04 1108)">Oeste</text><path d="M1671.71 902.472 1670.93 898.612 1669.9 887.951 1669.98 877.392 1671.14 866.99 1673.35 856.804 1676.57 846.889 1680.78 837.297 1685.92 828.085 1691.97 819.302 1698.9 811.003 1706.66 803.237 1715.23 796.056 1724.56 789.512 1734.64 783.654 1745.41 778.534 1756.72 774.251 1759.16 780.681 1747.98 784.914 1748.23 784.804 1737.72 789.802 1737.97 789.669 1728.15 795.382 1728.39 795.225 1719.29 801.601 1719.53 801.42 1711.19 808.409 1711.42 808.204 1703.87 815.754 1704.08 815.526 1697.35 823.585 1697.54 823.334 1691.67 831.852 1691.84 831.578 1686.86 840.505 1687.01 840.208 1682.94 849.492 1683.06 849.175 1679.94 858.765 1680.03 858.432 1677.9 868.277 1677.95 867.93 1676.83 877.979 1676.85 877.623 1676.77 887.825 1676.76 887.467 1677.75 897.771 1677.7 897.418 1678.45 901.103ZM1688.58 872.749 1676.44 908.473 1651.32 880.323C1650.05 878.907 1650.18 876.734 1651.59 875.47 1653.01 874.206 1655.18 874.329 1656.45 875.746L1677.65 899.498 1671.83 900.682 1682.07 870.537C1682.68 868.739 1684.63 867.777 1686.43 868.388 1688.23 868.999 1689.19 870.951 1688.58 872.749Z" fill="#156082"/><path d="M2307.22 1642.69 2303.4 1645.52 2293.49 1651.29 2283.19 1655.86 2272.59 1659.22 2261.76 1661.4 2250.78 1662.39 2239.72 1662.23 2228.66 1660.91 2217.67 1658.46 2206.83 1654.89 2196.21 1650.22 2185.88 1644.45 2175.91 1637.62 2166.38 1629.72 2157.36 1620.78 2149.01 1610.92 2154.26 1606.48 2162.51 1616.22 2162.31 1616 2171.11 1624.73 2170.89 1624.53 2180.18 1632.22 2179.93 1632.04 2189.64 1638.69 2189.37 1638.53 2199.41 1644.13 2199.12 1643.99 2209.44 1648.53 2209.14 1648.41 2219.66 1651.88 2219.33 1651.79 2229.98 1654.16 2229.64 1654.1 2240.35 1655.38 2240 1655.36 2250.7 1655.52 2250.34 1655.53 2260.96 1654.57 2260.59 1654.62 2271.06 1652.52 2270.69 1652.61 2280.93 1649.36 2280.58 1649.5 2290.53 1645.09 2290.19 1645.26 2299.77 1639.67 2299.46 1639.88 2303.13 1637.16ZM2273.15 1639.98 2310.66 1635.86 2295.78 1670.53C2295.03 1672.28 2293.01 1673.09 2291.26 1672.34 2289.52 1671.59 2288.71 1669.57 2289.46 1667.82L2302.02 1638.57 2305.55 1643.34 2273.9 1646.81C2272.02 1647.02 2270.32 1645.66 2270.11 1643.77 2269.91 1641.88 2271.27 1640.18 2273.15 1639.98Z" fill="#156082"/><path d="M101.309-2.22028 106.334-2.99434 118.296-3.41602 130.175-2.44053 141.882-0.0917266 153.325 3.60525 164.415 8.62436 175.064 14.939 185.04 22.4137 180.917 27.9157 171.089 20.5521 171.397 20.7579 161.071 14.6346 161.407 14.8095 150.666 9.94845 151.027 10.0878 139.956 6.51087 140.336 6.61018 129.019 4.33942 129.414 4.39506 117.934 3.45242 118.337 3.46182 106.779 3.86926 107.181 3.83132 102.356 4.57457ZM130.195 16.0433 95.0901 2.21582 124.406-21.5353C125.881-22.7304 128.046-22.5034 129.241-21.0283 130.436-19.5532 130.209-17.3886 128.734-16.1934L103.997 3.84807 103.093-2.02118 132.714 9.64662C134.481 10.3424 135.349 12.3384 134.653 14.1047 133.957 15.8711 131.961 16.739 130.195 16.0433Z" fill="#F2AA84" transform="matrix(0.306848 0.951759 0.951759 -0.306848 2071.07 1384.96)"/><text font-family="Aptos,Aptos_MSFontService,sans-serif" font-weight="400" font-size="83" transform="matrix(0.993796 0.111219 -0.111219 0.993796 2719.23 926)">Superfície horizontal</text><text font-family="Times New Roman,Times New Roman_MSFontService,sans-serif" font-weight="400" font-size="73" transform="matrix(1 0 0 1 1065.93 304)">Sol</text><path d="M2146.71 1050.93 2682.08 1167.23 2613.08 1484.84 2077.71 1368.53Z" fill="#0F9ED5" fill-rule="evenodd" fill-opacity="0.501961"/><path d="M1362.5 396.5 2348.23 1330.02" stroke="#156082" stroke-width="6.875" stroke-miterlimit="8" fill="none" fill-rule="evenodd"/><path d="M0 0 81.9085 574.7" stroke="#156082" stroke-width="6.875" stroke-linejoin="round" stroke-miterlimit="10" stroke-dasharray="27.5 20.625" fill="none" fill-rule="evenodd" transform="matrix(-1 0 0 1 2347.41 1329.5)"/><path d="M988.5 550.5 2347.91 1325.94" stroke="#E97132" stroke-width="6.875" stroke-miterlimit="8" fill="none" fill-rule="evenodd"/><path d="M0 0 619.257 394.494" stroke="#E97132" stroke-width="6.875" stroke-linejoin="round" stroke-miterlimit="10" stroke-dasharray="27.5 20.625" fill="none" fill-rule="evenodd" transform="matrix(-1 0 0 1 2337.76 1325.5)"/><path d="M1164.5 539 1067.5 555.601 1067.5 522.399ZM1110.16 414.192 1053.91 491.201 1029.24 467.724ZM979 362.5 996.447 454.797 961.553 454.797ZM847.827 414.192 928.764 467.724 904.09 491.201ZM793.5 539 890.504 522.399 890.504 555.601ZM847.827 663.792 904.09 586.799 928.764 610.276ZM979 715.5 961.553 623.203 996.447 623.203ZM1110.16 663.792 1029.24 610.276 1053.91 586.799ZM918.212 539C918.212 507.056 945.428 481.161 979 481.161 1012.57 481.161 1039.79 507.056 1039.79 539 1039.79 570.943 1012.57 596.839 979 596.839 945.428 596.839 918.212 570.943 918.212 539Z" stroke="#FFC000" stroke-width="6.875" stroke-miterlimit="8" fill="#FFFF00" fill-rule="evenodd"/><path d="M0 0 137.919 181.417" stroke="#156082" stroke-width="6.875" stroke-miterlimit="8" fill="none" fill-rule="evenodd" transform="matrix(1 0 0 -1 2611.5 1487.92)"/><path d="M2649.99 1306.17 2653.38 1307.39 2662.95 1311.95 2672.09 1317.46 2680.76 1323.86 2688.89 1331.12 2696.45 1339.2 2703.39 1348.05 2709.59 1357.52 2703.83 1361.28 2697.72 1351.94 2697.89 1352.17 2691.13 1343.56 2691.33 1343.78 2683.97 1335.93 2684.2 1336.15 2676.3 1329.1 2676.54 1329.29 2668.14 1323.08 2668.41 1323.26 2659.55 1317.93 2659.84 1318.09 2650.58 1313.67 2650.89 1313.8 2647.67 1312.64ZM2666.64 1336.02 2642.41 1307.1 2679.51 1300.24C2681.38 1299.9 2683.17 1301.13 2683.52 1303 2683.86 1304.87 2682.63 1306.66 2680.76 1307L2649.46 1312.79 2651.47 1307.2 2671.91 1331.6C2673.13 1333.06 2672.94 1335.23 2671.48 1336.45 2670.03 1337.67 2667.86 1337.47 2666.64 1336.02Z" fill="#156082"/><path d="M1686.43 1511.25 1996.69 1613.82 1944.39 1772.01 1634.13 1669.45Z" stroke="#E97132" stroke-width="6.875" stroke-miterlimit="8" stroke-dasharray="27.5 20.625" fill="#FFFFFF" fill-rule="evenodd"/><text font-family="Times New Roman,Times New Roman_MSFontService,sans-serif" font-weight="400" font-size="55" transform="matrix(0.949465 0.313874 -0.313874 0.949465 1695.95 1588)">Projeção </text><text font-family="Times New Roman,Times New Roman_MSFontService,sans-serif" font-weight="400" font-size="55" transform="matrix(0.949465 0.313874 -0.313874 0.949465 1675.23 1650)">do Feixe</text><path d="M1419.83 871.333 1554.66 695.386 1634.01 756.192 1499.18 932.139Z" stroke="#E97132" stroke-width="6.875" stroke-miterlimit="8" fill="#FFFFFF" fill-rule="evenodd"/><text font-family="Times New Roman,Times New Roman_MSFontService,sans-serif" font-weight="400" font-size="55" transform="matrix(0.60826 -0.793738 0.793738 0.60826 1495.07 887)">Feixe</text><rect x="1297.5" y="450.5" width="487" height="166" stroke="#156082" stroke-width="6.875" stroke-miterlimit="8" fill="#FFFFFF"/><text font-family="Times New Roman,Times New Roman_MSFontService,sans-serif" font-weight="400" font-size="55" transform="matrix(1 0 0 1 1329.75 519)">Normal ao plano </text><text font-family="Times New Roman,Times New Roman_MSFontService,sans-serif" font-weight="400" font-size="55" transform="matrix(1 0 0 1 1329.75 585)">inclinado </text><text font-family="Times New Roman,Times New Roman_MSFontService,sans-serif" font-weight="400" font-size="55" transform="matrix(1 0 0 1 1549.18 585)">–</text><text font-family="Times New Roman,Times New Roman_MSFontService,sans-serif" font-weight="400" font-size="55" transform="matrix(1 0 0 1 1604.18 585)">Ñ</text><rect x="2161.5" y="1739.5" width="435" height="100" stroke="#156082" stroke-width="6.875" stroke-miterlimit="8" stroke-dasharray="27.5 20.625" fill="#FFFFFF"/><text font-family="Times New Roman,Times New Roman_MSFontService,sans-serif" font-weight="400" font-size="55" transform="matrix(1 0 0 1 2193.83 1808)">Projeção de Ñ</text><text font-family="Times New Roman,Times New Roman_MSFontService,sans-serif" font-weight="400" font-size="83" transform="matrix(1 0 0 1 2025 1595)">-</text><text font-family="Times New Roman,Times New Roman_MSFontService,sans-serif" font-weight="400" font-size="83" transform="matrix(1 0 0 1 2052.5 1595)">ψ</text><text font-family="Times New Roman,Times New Roman_MSFontService,sans-serif" font-weight="400" font-size="83" transform="matrix(1 0 0 1 2202.22 1616)">+</text><text font-family="Times New Roman,Times New Roman_MSFontService,sans-serif" font-weight="400" font-size="83" transform="matrix(1 0 0 1 2248.62 1616)">γ</text><text font-family="Times New Roman,Times New Roman_MSFontService,sans-serif" font-weight="400" font-size="83" transform="matrix(1 0 0 1 2689.43 1298)">β</text><text font-family="Times New Roman,Times New Roman_MSFontService,sans-serif" font-weight="400" font-size="83" transform="matrix(1 0 0 1 1736.2 893)">θ</text><text font-family="Aptos,Aptos_MSFontService,sans-serif" font-weight="400" font-size="64" transform="matrix(0.979895 0.199516 -0.199516 0.979895 2154.44 1118)">Módulo</text><text font-family="Aptos,Aptos_MSFontService,sans-serif" font-weight="400" font-size="64" transform="matrix(0.979895 0.199516 -0.199516 0.979895 2373.39 1162)">FV</text></g></svg>