<svg width="2572" height="2256" xmlns="http://www.w3.org/2000/svg" xmlns:xlink="http://www.w3.org/1999/xlink" xml:space="preserve" overflow="hidden"><g transform="translate(-488 -154)"><path d="M636.603 1366.92C1008.71 1075.24 1835.98 810.604 2484.35 775.84 2698.49 764.359 2874.93 779.444 2994.59 819.465" stroke="#156082" stroke-width="6.875" stroke-miterlimit="8" fill="none" fill-rule="evenodd"/><path d="M2992.27 1453.97 2992.27 1453.97C2959.48 1411.38 2955.03 1417.32 2950.36 1366.53 2941.64 1271.75 2968.12 1234.19 2925.7 1170.81 2920.76 1163.44 2915.78 1155.77 2908.44 1149.99 2897.31 1141.22 2877.59 1139.78 2864.06 1137.5L2716.13 1141.66C2696.86 1144.72 2683.53 1160.07 2666.82 1168.73 2647.36 1178.82 2628.2 1189.47 2607.65 1197.88 2601.19 1200.53 2576.55 1203.12 2568.2 1204.13 2554.23 1208.98 2539.91 1213.18 2526.29 1218.7 2519.3 1221.53 2514.26 1228.3 2506.57 1229.11L2467.12 1224.95C2449.86 1225.64 2432.4 1224.71 2415.34 1227.03 2386.21 1230.98 2329.05 1243.69 2329.05 1243.69 2317.54 1249.93 2304.38 1254.41 2294.53 1262.42 2281.86 1272.73 2262.48 1297.82 2262.48 1297.82 2255.35 1313.87 2256.4 1315.89 2242.76 1329.05 2235.87 1335.7 2228.21 1341.76 2220.57 1347.79 2215.87 1351.49 2209.92 1354.06 2205.77 1358.2 2200.77 1363.2 2198.1 1369.62 2193.45 1374.86 2190.66 1378 2186.49 1380.12 2183.58 1383.18 2179.88 1387.09 2177.01 1391.51 2173.72 1395.68 2172.9 1407.47 2174.52 1419.58 2171.26 1431.07 2165.57 1451.1 2156.81 1446.93 2139.21 1453.97 2114.45 1463.88 2116.56 1463.44 2099.76 1474.79 2096.47 1490.76 2091.63 1506.55 2089.9 1522.68 2088.47 1535.89 2089.43 1546.37 2082.5 1558.08 2079.85 1562.55 2077.78 1568.09 2072.64 1570.57 2054.08 1579.52 2032.58 1583.32 2013.46 1591.39L1993.74 1599.72C1976.87 1621.09 1992.12 1598.98 1993.74 1658.02 1994.09 1670.52 1993.37 1683.11 1991.28 1695.49 1989.96 1703.25 1980.02 1703.2 1974.02 1705.9 1949.47 1716.96 1954.15 1714.35 1939.5 1726.72 1941.97 1734.36 1938.47 1746.16 1946.9 1749.63 1996.45 1770.01 2119.79 1770.62 2163.86 1772.53L2563.27 1789.19 2666.82 1805.84C2809.36 1826.71 2700.11 1807.55 2782.7 1822.5 2883.51 1818.8 2922.58 1824.72 3002.13 1807.93 3008.94 1806.49 3015.28 1803.76 3021.86 1801.68 3028.74 1792.96 3029.19 1791.5 3041.58 1782.94 3045.29 1780.38 3049.8 1778.78 3053.91 1776.69 3054.73 1769.06 3057.07 1761.44 3056.37 1753.79 3051.93 1704.99 3045.34 1674.99 3036.65 1630.95 3035.83 1619.15 3034.67 1607.37 3034.18 1595.55 3028 1444.2 3058.95 1491.62 3021.86 1439.4 3016.92 1440.09 3011.63 1439.77 3007.06 1441.48L2992.27 1453.97Z" stroke="#000000" stroke-width="6.875" stroke-miterlimit="8" fill="#FFFFFF" fill-rule="evenodd"/><path d="M637.5 1522.5 637.5 1522.5C672.962 1532.28 709.18 1539.65 743.887 1551.84 769.125 1560.71 778.17 1572.73 787.91 1595.86 793.912 1610.11 794.854 1626.48 802.584 1639.88 813.464 1658.73 825.936 1677.63 842.938 1691.23 863.44 1707.63 888.349 1717.95 912.639 1727.91 952.065 1744.08 995.818 1752.02 1037.37 1760.92 1061.4 1772.94 1078.62 1778.46 1096.07 1801.27 1125.84 1840.2 1105.57 1827.62 1121.75 1859.96 1126.9 1870.28 1134.36 1879.29 1140.09 1889.31 1144.16 1896.43 1146.24 1904.7 1151.09 1911.31 1159.8 1923.19 1170.33 1933.62 1180.44 1944.33 1199.06 1964.04 1217.84 1982.62 1239.14 1999.35 1247.41 2005.84 1257.38 2010.25 1264.82 2017.69 1275.89 2028.76 1284.38 2042.14 1294.17 2054.37 1303.95 2066.59 1313.84 2078.74 1323.51 2091.05 1332.13 2102.01 1340.48 2113.17 1349.19 2124.06 1369.83 2149.86 1411.56 2201.09 1411.56 2201.09 1412.78 2204.76 1413.5 2208.64 1415.23 2212.09 1417.2 2216.04 1420.23 2219.36 1422.56 2223.1 1426.34 2229.14 1429.9 2235.32 1433.57 2241.44 1429.9 2251.22 1428.98 2262.54 1422.56 2270.78 1419.47 2274.76 1412.02 2271.56 1407.89 2274.45 1395.37 2283.21 1381.02 2302.53 1371.2 2314.8 1378.54 2324.58 1383.14 2337.22 1393.22 2344.14 1403.74 2351.38 1417.47 2352.22 1429.9 2355.15 1461.07 2362.48 1550.96 2362.35 1554.63 2362.48 1602.74 2378.52 1548.98 2362.06 1602.32 2373.49 1628.13 2379.02 1653.48 2386.65 1679.36 2391.83 1685.47 2393.05 1691.62 2394.14 1697.7 2395.5 1732.07 2403.13 1721.13 2406.5 1782.08 2406.5 1839.6 2406.5 1897.03 2401.61 1954.5 2399.16" stroke="#042433" stroke-width="6.875" stroke-miterlimit="8" fill="none" fill-rule="evenodd"/><path d="M0 0 1580.33 3.82077" stroke="#000000" stroke-width="6.875" stroke-miterlimit="8" fill="none" fill-rule="evenodd" transform="matrix(1 0 0 -1 1380.5 2128.32)"/><path d="M0 0 1.20285 194.611" stroke="#000000" stroke-width="6.875" stroke-miterlimit="8" fill="none" fill-rule="evenodd" transform="matrix(-1 0 0 1 1955.7 1929.5)"/><path d="M0 0 6.23947 216.551" stroke="#000000" stroke-width="6.875" stroke-miterlimit="8" fill="none" fill-rule="evenodd" transform="matrix(-1 0 0 1 1865.74 1915.5)"/><path d="M1646.5 2022.5 1646.5 2131.64" stroke="#000000" stroke-width="6.875" stroke-miterlimit="8" fill="none" fill-rule="evenodd"/><path d="M1686.5 2022.5 1686.5 2131.64" stroke="#000000" stroke-width="6.875" stroke-miterlimit="8" fill="none" fill-rule="evenodd"/><path d="M1594.79 2034.81 1881.77 1898.61 2006.72 1918.67 1580.99 2120.72Z" stroke="#000000" stroke-width="6.875" stroke-miterlimit="8" fill="#156082" fill-rule="evenodd"/><path d="M799.849 1403.72 862.369 1673.67 855.671 1675.23 793.151 1405.28ZM871.381 1666.88 864.191 1696.77 844.591 1673.09Z" fill="#E97132"/><path d="M716 357 844.481 541.463" stroke="#E97132" stroke-width="10.3125" stroke-miterlimit="8" fill="none" fill-rule="evenodd"/><path d="M851 556 917 657.962" stroke="#E97132" stroke-width="10.3125" stroke-miterlimit="8" stroke-dasharray="10.3125 10.3125" fill="none" fill-rule="evenodd"/><path d="M917 658 1133.33 977" stroke="#E97132" stroke-width="10.3125" stroke-miterlimit="8" fill="none" fill-rule="evenodd"/><path d="M1141 988 1232.67 1142.81" stroke="#E97132" stroke-width="10.3125" stroke-miterlimit="8" stroke-dasharray="10.3125 10.3125" fill="none" fill-rule="evenodd"/><path d="M1233 1142 1421.83 1455.5" stroke="#E97132" stroke-width="10.3125" stroke-miterlimit="8" fill="none" fill-rule="evenodd"/><path d="M0.109663-3.43575 7.91923-3.18648 15.7691-2.45039 23.4899-1.26379 31.0242 0.341431 38.3151 2.33425 45.3056 4.6846 51.939 7.36358 58.1591 10.3439 63.9099 13.6002 69.1354 17.1107 73.7792 20.858 77.7816 24.8309 81.0758 29.0258 83.5782 33.4434 85.1786 38.0739 85.6942 42.4562 86.1662 46.4688 86.0012 45.7476 87.3772 49.7289 87.1193 49.1575 89.339 53.076 89.0516 52.6472 92.0547 56.4716 91.7728 56.1549 95.4991 59.8537 95.2362 59.6182 99.6254 63.1601 99.3836 62.9818 104.375 66.3353 104.152 66.1975 109.687 69.3313 109.478 69.2225 115.494 72.1051 115.296 72.0178 121.735 74.6179 121.543 74.547 128.343 76.8332 128.153 76.7756 135.254 78.7166 134.863 78.6337 142.301 79.7596 141.272 86.5571 133.635 85.4012 126.245 83.3813 119.255 81.0309 112.621 78.352 106.401 75.3717 100.651 72.1153 95.425 68.6048 90.7813 64.8576 86.7788 60.8847 83.4846 56.6897 80.9822 52.2722 79.3818 47.6417 78.8663 43.2594 78.3942 39.2467 78.5592 39.968 77.1832 35.9867 77.4412 36.5581 75.2215 32.6396 75.5089 33.0683 72.5057 29.244 72.7876 29.5606 69.0613 25.8618 69.3243 26.0973 64.935 22.5555 65.1768 22.7337 60.185 19.3802 60.4081 19.5181 54.8739 16.3843 55.0823 16.4931 49.066 13.6104 49.264 13.6978 42.8259 11.0977 43.0176 11.1685 36.2178 8.8823 36.407 8.9399 29.3059 6.99896 29.496 7.04513 22.1538 5.48087 22.3479 5.51643 14.825 4.36023 15.0263 4.38511 7.38279 3.66837 7.59406 3.68164-0.109663 3.43575ZM138.767 68.9828 164.56 85.7156 135.698 96.311Z" fill="#FFC000" transform="matrix(1 0 0 -1 1343.5 1208.22)"/><path d="M1453.61 1299.06 1461.1 1299.31 1468.64 1300.05 1476.05 1301.23 1483.34 1302.84 1496.95 1307.13 1503.36 1309.82 1509.34 1312.79 1514.86 1316.04 1519.87 1319.53 1524.33 1323.27 1528.17 1327.22 1531.33 1331.4 1533.73 1335.79 1535.26 1340.38 1535.75 1344.72 1536.2 1348.71 1536.05 1348.01 1537.37 1351.97 1537.12 1351.41 1539.25 1355.31 1538.97 1354.88 1541.85 1358.68 1541.57 1358.36 1545.14 1362.04 1544.89 1361.8 1549.09 1365.32 1548.85 1365.14 1553.63 1368.47 1553.41 1368.33 1558.71 1371.44 1558.5 1371.33 1564.26 1374.19 1564.06 1374.1 1570.23 1376.69 1569.94 1376.58 1583.25 1380.78 1582.72 1380.66 1588.92 1381.57 1587.91 1388.37 1581.45 1387.42 1567.72 1383.09 1561.3 1380.4 1555.33 1377.43 1549.81 1374.19 1544.79 1370.69 1540.34 1366.96 1536.49 1363 1533.34 1358.83 1530.94 1354.44 1529.41 1349.85 1528.92 1345.5 1528.47 1341.51 1528.62 1342.21 1527.3 1338.25 1527.55 1338.81 1525.42 1334.91 1525.69 1335.34 1522.82 1331.54 1523.09 1331.86 1519.52 1328.18 1519.78 1328.42 1515.58 1324.9 1515.82 1325.09 1511.03 1321.75 1511.26 1321.9 1505.96 1318.78 1506.17 1318.89 1500.4 1316.03 1500.6 1316.12 1494.44 1313.54 1494.73 1313.64 1481.41 1309.44 1481.7 1309.52 1474.67 1307.96 1474.87 1308 1467.66 1306.85 1467.87 1306.88 1460.55 1306.17 1460.77 1306.18 1453.39 1305.94ZM1585.51 1370.77 1611.17 1387.72 1582.22 1398.07Z" fill="#FFC000"/><path d="M0.0842318-3.43647 8.27728-3.23565 16.5229-2.64188 32.4049-0.4098 40.0722 1.19958 47.3882 3.08856 54.3313 5.24191 60.8427 7.63779 66.865 10.2566 72.3421 13.0822 77.2196 16.1047 81.4436 19.3245 84.9552 22.7587 87.6749 26.4456 89.4666 30.4267 90.0346 34.1345 90.5316 37.3791 90.2684 36.4888 91.7173 39.7081 91.349 39.0783 93.6862 42.2468 93.3233 41.8298 96.4855 44.9221 96.166 44.6459 100.09 47.6368 99.8164 47.4486 104.438 50.3126 104.203 50.1796 109.459 52.8912 109.254 52.7938 115.081 55.3278 114.898 55.2541 121.233 57.585 121.064 57.5278 127.843 59.6303 127.684 59.5851 134.844 61.4338 134.691 61.398 142.168 62.9674 141.847 62.9158 150.827 63.929 150.056 70.7606 140.915 69.7292 133.201 68.1102 125.885 66.2212 118.942 64.0679 112.431 61.672 106.408 59.0532 100.931 56.2276 96.0539 53.2051 91.8299 49.9853 88.3182 46.5512 85.5986 42.8642 83.8069 38.8832 83.2389 35.1755 82.7418 31.9308 83.005 32.8211 81.5561 29.6018 81.9245 30.2315 79.5872 27.063 79.9501 27.4801 76.788 24.3877 77.1075 24.6639 73.1839 21.673 73.4571 21.8612 68.8355 18.9972 69.0701 19.1302 63.814 16.4185 64.0192 16.516 58.192 13.982 58.3757 14.0557 52.0409 11.7248 52.2096 11.7819 45.4305 9.67947 45.5894 9.7246 38.4296 7.87594 38.5829 7.91179 31.1058 6.34234 31.3335 6.38219 15.6814 4.18243 15.9129 4.207 7.86472 3.62745 8.02739 3.63529-0.0842318 3.43647ZM147.054 53.2525 173.273 69.3097 144.696 80.6512Z" fill="#FFC000" transform="matrix(-1 1.22465e-16 1.22465e-16 1 1155.77 1201.5)"/><path d="M0.180436-3.43276 7.26238-3.06051 14.4494-1.95066 21.5034-0.165317 28.3722 2.24465 35.0045 5.23002 41.3495 8.74317 47.3559 12.738 52.9724 17.1696 58.1468 21.9948 62.8257 27.1711 66.9544 32.6577 70.4759 38.4142 73.3305 44.4005 75.4545 50.5752 76.7804 56.8932 77.2204 63.0524 77.6438 68.9788 77.5792 68.5177 78.8133 74.3977 78.6997 73.9856 80.6904 79.7729 80.5426 79.4115 83.2359 85.0597 83.0655 84.7454 86.4073 90.2082 86.2217 89.9352 90.1581 95.1661 89.9615 94.928 94.4384 99.8808 94.2326 99.6718 99.1959 104.3 98.9809 104.116 104.377 108.373 104.151 108.209 109.925 112.05 109.686 111.904 115.785 115.281 115.53 115.154 121.899 118.02 121.176 117.787 125.8 118.731 124.424 125.467 119.426 124.446 112.579 121.365 106.234 117.851 100.227 113.857 94.6109 109.425 89.4366 104.6 84.7577 99.4235 80.629 93.9369 77.1074 88.1804 74.2529 82.1941 72.1289 76.0194 70.8029 69.7014 70.3629 63.5423 69.9395 57.6159 70.0041 58.077 68.77 52.1969 68.8837 52.609 66.893 46.8217 67.0407 47.1831 64.3474 41.5349 64.5179 41.8492 61.176 36.3864 61.3616 36.6594 57.4252 31.4284 57.6218 31.6666 53.1449 26.7138 53.3507 26.9227 48.3874 22.2944 48.6025 22.479 43.2068 18.2216 43.4325 18.3852 37.6585 14.5451 37.897 14.6901 31.7987 11.3135 32.0529 11.4408 25.6844 8.57419 25.9573 8.68325 19.3726 6.37296 19.6673 6.46174 12.9204 4.75414 13.2393 4.81895 6.38435 3.76039 6.72852 3.79592-0.180436 3.43276ZM123.315 107.718 147.583 126.595 117.92 134.683Z" fill="#FFC000" transform="matrix(-1 1.22465e-16 1.22465e-16 1 1215.08 1333.5)"/><path d="M1336.64 1413.66 1336.23 1422.23 1335.01 1430.88 1333.05 1439.37 1330.39 1447.65 1327.1 1455.65 1323.23 1463.31 1318.82 1470.57 1313.93 1477.35 1308.6 1483.61 1302.88 1489.27 1296.81 1494.27 1290.44 1498.54 1283.82 1502 1276.97 1504.57 1269.96 1506.18 1263.12 1506.72 1256.53 1507.23 1257.04 1507.16 1250.5 1508.66 1250.94 1508.53 1244.51 1510.95 1244.89 1510.78 1238.61 1514.06 1238.93 1513.86 1232.86 1517.93 1233.13 1517.73 1227.32 1522.52 1227.55 1522.31 1222.05 1527.76 1222.25 1527.54 1217.1 1533.58 1217.27 1533.36 1212.54 1539.93 1212.69 1539.7 1208.42 1546.73 1208.55 1546.49 1204.8 1553.92 1204.91 1553.67 1201.73 1561.42 1201.88 1560.94 1199.33 1571.26 1192.65 1569.61 1195.27 1559.04 1198.6 1550.93 1202.48 1543.27 1206.89 1536.02 1211.78 1529.23 1217.11 1522.97 1222.83 1517.31 1228.89 1512.31 1235.26 1508.05 1241.89 1504.59 1248.74 1502.01 1255.74 1500.4 1262.59 1499.86 1269.17 1499.35 1268.67 1499.43 1275.21 1497.92 1274.77 1498.06 1281.2 1495.64 1280.82 1495.81 1287.1 1492.53 1286.77 1492.72 1292.85 1488.65 1292.57 1488.86 1298.39 1484.07 1298.16 1484.28 1303.66 1478.83 1303.46 1479.04 1308.61 1473 1308.43 1473.22 1313.17 1466.66 1313.02 1466.88 1317.28 1459.86 1317.16 1460.09 1320.91 1452.67 1320.8 1452.91 1323.98 1445.16 1323.89 1445.42 1326.46 1437.41 1326.38 1437.68 1328.28 1429.47 1328.22 1429.77 1329.4 1421.43 1329.37 1421.74 1329.77 1413.34ZM1210.28 1568 1192.5 1593.08 1183.1 1563.81Z" fill="#FFC000"/><path d="M1425 1467 1759.08 1971.94" stroke="#E97132" stroke-width="10.3125" stroke-miterlimit="8" stroke-dasharray="82.5 30.9375" fill="none" fill-rule="evenodd"/><path d="M1660.36 1356.17 2139.1 1480.17 2137.37 1486.82 1658.64 1362.83ZM2137.25 1469.03 2160.42 1489.24 2130.35 1495.65Z" fill="#FFC000"/><path d="M1708.34 1156.17 2230.69 1288.28 2229.01 1294.95 1706.66 1162.83ZM2228.78 1277.16 2252.07 1297.24 2222.03 1303.82Z" fill="#FFC000"/><path d="M2.395-2.46584 222.182 211.007 217.392 215.938-2.395 2.46584ZM226.079 200.416 236.226 229.439 206.919 220.143Z" fill="#FFC000" transform="matrix(-1 0 0 1 969.726 1322.5)"/><path d="M2.91002-1.8298 113.401 173.889 107.581 177.549-2.91002 1.8298ZM119.691 164.52 122.689 195.119 96.4108 179.158Z" fill="#FFC000" transform="matrix(-1 0 0 1 1064.19 1530.5)"/><path d="M3.0543-1.57723 86.5829 160.176 80.4743 163.33-3.0543 1.57723ZM93.6429 151.372 94.0435 182.115 69.2085 163.989Z" fill="#FFC000" transform="matrix(-1 0 0 1 1192.54 1620.5)"/><path d="M0 0 175.163 159.117" stroke="#E97132" stroke-width="10.3125" stroke-miterlimit="8" fill="none" fill-rule="evenodd" transform="matrix(-0.620463 0.784236 0.784236 0.620463 698.302 408.5)"/><path d="M0 0 89.9799 87.9527" stroke="#E97132" stroke-width="10.3125" stroke-miterlimit="8" stroke-dasharray="10.3125 10.3125" fill="none" fill-rule="evenodd" transform="matrix(-0.620463 0.784236 0.784236 0.620463 718.601 660.663)"/><path d="M0 0 294.934 275.169" stroke="#E97132" stroke-width="10.3125" stroke-miterlimit="8" fill="none" fill-rule="evenodd" transform="matrix(-0.620463 0.784236 0.784236 0.620463 731.747 785.8)"/><path d="M0 0 124.972 133.535" stroke="#E97132" stroke-width="10.3125" stroke-miterlimit="8" stroke-dasharray="10.3125 10.3125" fill="none" fill-rule="evenodd" transform="matrix(-0.620463 0.784236 0.784236 0.620463 765.242 1201.13)"/><path d="M3.28854-1.00096 240.896 779.631 234.318 781.633-3.28854 1.00096ZM249.426 772.242 244.28 802.554 223.118 780.25Z" fill="#FFC000" transform="matrix(-1 0 0 1 2290.78 1304.5)"/><path d="M3.2677-1.06703 194.271 583.867 187.736 586.001-3.2677 1.06703ZM202.651 576.309 198.117 606.719 176.51 584.845Z" fill="#FFC000" transform="matrix(-1 0 0 1 2173.62 1506.5)"/><path d="M1118.6 1803.24 1626.57 1974.92 1624.37 1981.44 1116.4 1809.76ZM1625.53 1963.69 1647.18 1985.52 1616.72 1989.74Z" fill="#FFC000"/><path d="M950.157 1715.49 1562.55 2052.51 1559.23 2058.53 946.843 1721.51ZM1563.5 2041.26 1580.97 2066.57 1550.25 2065.35Z" fill="#FFC000"/><path d="M777.612 1546.25 1808.37 1898.47 1806.14 1904.97 775.389 1552.75ZM1807.36 1887.22 1828.93 1909.13 1798.46 1913.24Z" fill="#FFC000"/><path d="M862.502 1693.21 1680.26 1942.33 1678.25 1948.9 860.498 1699.79ZM1678.88 1931.13 1701.18 1952.29 1670.86 1957.43Z" fill="#FFC000"/><text font-family="Times New Roman,Times New Roman_MSFontService,sans-serif" font-weight="400" font-size="73" transform="matrix(0.985036 -0.17235 0.17235 0.985036 1618.49 664)">Extraterrestrial</text><text font-family="Times New Roman,Times New Roman_MSFontService,sans-serif" font-weight="400" font-size="73" transform="matrix(0.985036 -0.17235 0.17235 0.985036 2072.22 585)">irradiance</text><path d="M637.5 352C637.5 320.244 663.244 294.5 695 294.5 726.756 294.5 752.5 320.244 752.5 352 752.5 383.756 726.756 409.5 695 409.5 663.244 409.5 637.5 383.756 637.5 352Z" stroke="#FFC000" stroke-width="6.875" stroke-miterlimit="8" fill="#FFFF00" fill-rule="evenodd"/><path d="M2041.52 2115.95 1903.19 2004.55 1907.5 1999.2 2045.83 2110.59ZM1900.29 2015.46 1887.5 1987.5 1917.54 1994.04Z" fill="#FFC000"/><path d="M1981.82 2115.72 1819.41 2049.35 1822.01 2042.99 1984.42 2109.35ZM1819.76 2060.63 1799.5 2037.5 1830.16 2035.17Z" fill="#FFC000"/><path d="M1181.37 1251.35 1413.34 1194.47 1442.43 1313.14 1210.46 1370.02Z" stroke="#E97132" stroke-width="6.875" stroke-miterlimit="8" fill="#FFFFFF" fill-rule="evenodd"/><text font-family="Times New Roman,Times New Roman_MSFontService,sans-serif" font-weight="400" font-size="73" transform="matrix(0.971236 -0.23812 0.23812 0.971236 1234.25 1328)">Beam</text><path d="M768.881 1512.22 1016.84 1451.43 1045.94 1570.1 797.975 1630.89Z" stroke="#E97132" stroke-width="6.875" stroke-miterlimit="8" fill="#FFFFFF" fill-rule="evenodd"/><text font-family="Times New Roman,Times New Roman_MSFontService,sans-serif" font-weight="400" font-size="73" transform="matrix(0.971236 -0.23812 0.23812 0.971236 821.766 1589)">Beam</text><text font-family="Times New Roman,Times New Roman_MSFontService,sans-serif" font-weight="400" font-size="73" transform="matrix(1 0 0 1 2656.14 2095)">Ground</text><text font-family="Times New Roman,Times New Roman_MSFontService,sans-serif" font-weight="400" font-size="73" transform="matrix(1 0 0 1 1653.13 1739)">Receiver</text><text font-family="Times New Roman,Times New Roman_MSFontService,sans-serif" font-weight="400" font-size="73" transform="matrix(1 0 0 1 1686.63 1827)">surface</text><rect x="2001.5" y="1935.5" width="289" height="122" stroke="#FFC000" stroke-width="6.875" stroke-miterlimit="8" fill="#FFFFFF"/><text font-family="Times New Roman,Times New Roman_MSFontService,sans-serif" font-weight="400" font-size="73" transform="matrix(1 0 0 1 2034.05 2022)">Albedo</text><rect x="2051.5" y="1586.5" width="298" height="122" stroke="#FFC000" stroke-width="6.875" stroke-miterlimit="8" fill="#FFFFFF"/><text font-family="Times New Roman,Times New Roman_MSFontService,sans-serif" font-weight="400" font-size="73" transform="matrix(1 0 0 1 2083.81 1674)">Diffuse</text><path d="M1266.6 1928.37 1433.8 1681.99 1534.9 1750.6 1367.7 1996.98Z" stroke="#FFC000" stroke-width="6.875" stroke-miterlimit="8" fill="#FFFFFF" fill-rule="evenodd"/><text font-family="Times New Roman,Times New Roman_MSFontService,sans-serif" font-weight="400" font-size="73" transform="matrix(0.561536 -0.827452 0.827452 0.561536 1357.53 1950)">Diffuse</text><text font-family="Times New Roman,Times New Roman_MSFontService,sans-serif" font-weight="400" font-size="73" transform="matrix(0.992815 -0.119658 0.119658 0.992815 2022.37 977)">Air </text><text font-family="Times New Roman,Times New Roman_MSFontService,sans-serif" font-weight="400" font-size="73" transform="matrix(0.992815 -0.119658 0.119658 0.992815 2137.84 963)">mass</text><text font-family="Times New Roman,Times New Roman_MSFontService,sans-serif" font-weight="400" font-size="73" transform="matrix(0.992815 -0.119658 0.119658 0.992815 2302.22 944)">on</text><text font-family="Times New Roman,Times New Roman_MSFontService,sans-serif" font-weight="400" font-size="73" transform="matrix(0.992815 -0.119658 0.119658 0.992815 2393.23 933)">Earth </text><text font-family="Times New Roman,Times New Roman_MSFontService,sans-serif" font-weight="400" font-size="73" transform="matrix(0.992815 -0.119658 0.119658 0.992815 2032.9 1065)">(</text><text font-family="Times New Roman,Times New Roman_MSFontService,sans-serif" font-weight="400" font-size="73" transform="matrix(0.992815 -0.119658 0.119658 0.992815 2057.36 1062)">Aerosol</text><text font-family="Times New Roman,Times New Roman_MSFontService,sans-serif" font-weight="400" font-size="73" transform="matrix(0.992815 -0.119658 0.119658 0.992815 2288.3 1034)">, </text><text font-family="Times New Roman,Times New Roman_MSFontService,sans-serif" font-weight="400" font-size="73" transform="matrix(0.992815 -0.119658 0.119658 0.992815 2324.7 1030)">water</text><text font-family="Times New Roman,Times New Roman_MSFontService,sans-serif" font-weight="400" font-size="73" transform="matrix(0.992815 -0.119658 0.119658 0.992815 2483.89 1010)">, </text><text font-family="Times New Roman,Times New Roman_MSFontService,sans-serif" font-weight="400" font-size="73" transform="matrix(0.992815 -0.119658 0.119658 0.992815 2520.3 1006)">vapour</text><text font-family="Times New Roman,Times New Roman_MSFontService,sans-serif" font-weight="400" font-size="73" transform="matrix(0.992815 -0.119658 0.119658 0.992815 2722.79 982)">)</text><path d="M880.5 350 783.496 366.601 783.496 333.399ZM826.155 225.192 769.91 302.201 745.236 278.724ZM695 173.5 712.447 265.797 677.553 265.797ZM563.827 225.192 644.764 278.724 620.089 302.201ZM509.5 350 606.504 333.399 606.504 366.601ZM563.827 474.792 620.089 397.799 644.764 421.276ZM695 526.5 677.553 434.203 712.447 434.203ZM826.155 474.792 745.236 421.276 769.91 397.799ZM634.212 350C634.212 318.057 661.427 292.161 695 292.161 728.572 292.161 755.788 318.057 755.788 350 755.788 381.944 728.572 407.839 695 407.839 661.427 407.839 634.212 381.944 634.212 350Z" stroke="#FFC000" stroke-width="6.875" stroke-miterlimit="8" fill="#FFFF00" fill-rule="evenodd"/><text font-family="Times New Roman,Times New Roman_MSFontService,sans-serif" font-weight="400" font-size="73" transform="matrix(1 0 0 1 889.151 305)">Su</text><text font-family="Times New Roman,Times New Roman_MSFontService,sans-serif" font-weight="400" font-size="73" transform="matrix(1 0 0 1 966.495 305)">n</text><text font-family="Times New Roman,Times New Roman_MSFontService,sans-serif" font-weight="400" font-size="73" transform="matrix(1 0 0 1 898.642 2304)">Obstacle</text><text font-family="Times New Roman,Times New Roman_MSFontService,sans-serif" font-weight="400" font-size="73" transform="matrix(1 0 0 1 2654.85 1255)">Obstacle</text></g></svg>