<svg width="4195" height="2183" xmlns="http://www.w3.org/2000/svg" xmlns:xlink="http://www.w3.org/1999/xlink" xml:space="preserve" overflow="hidden"><g transform="translate(-123 -121)"><path d="M794.5 214.501C794.5 164.795 834.794 124.5 884.5 124.5L1946.5 124.5C1996.21 124.5 2036.5 164.795 2036.5 214.501L2036.5 214.501C2036.5 264.207 1996.21 304.501 1946.5 304.501L884.5 304.5C834.794 304.5 794.5 264.205 794.5 214.499Z" stroke="#E97132" stroke-width="6.875" stroke-miterlimit="8" fill="#FFFFFF" fill-rule="evenodd"/><text font-family="Aptos,Aptos_MSFontService,sans-serif" font-weight="400" font-size="83" transform="matrix(1 0 0 1 964.188 240)">Irradiance Extraterrestrial</text><path d="M949.5 740.5 1415 422.5 1880.5 740.5 1415 1058.5Z" stroke="#0F9ED5" stroke-width="6.875" stroke-miterlimit="8" fill="#FFFFFF" fill-rule="evenodd"/><text font-family="Aptos,Aptos_MSFontService,sans-serif" font-weight="400" font-size="69" transform="matrix(1 0 0 1 1158.58 650)">Are obstacles like </text><text font-family="Aptos,Aptos_MSFontService,sans-serif" font-weight="400" font-size="69" transform="matrix(1 0 0 1 1130.3 733)">shading and clouds </text><text font-family="Aptos,Aptos_MSFontService,sans-serif" font-weight="400" font-size="69" transform="matrix(1 0 0 1 1217.87 815)">considered in </text><text font-family="Aptos,Aptos_MSFontService,sans-serif" font-weight="400" font-size="69" transform="matrix(1 0 0 1 1252.75 898)">irradiance?</text><path d="M2036.5 1173 2421.5 888.5 2806.5 1173 2421.5 1457.5Z" stroke="#0F9ED5" stroke-width="6.875" stroke-miterlimit="8" fill="#FFFFFF" fill-rule="evenodd"/><text font-family="Aptos,Aptos_MSFontService,sans-serif" font-weight="400" font-size="69" transform="matrix(1 0 0 1 2180.34 1139)">Is perpendicular </text><text font-family="Aptos,Aptos_MSFontService,sans-serif" font-weight="400" font-size="69" transform="matrix(1 0 0 1 2357.95 1222)">with </text><text font-family="Aptos,Aptos_MSFontService,sans-serif" font-weight="400" font-size="69" transform="matrix(1 0 0 1 2299.97 1304)">ground?</text><path d="M976.5 1640 1428.5 1355.5 1880.5 1640 1428.5 1924.5Z" stroke="#0F9ED5" stroke-width="6.875" stroke-miterlimit="8" fill="#FFFFFF" fill-rule="evenodd"/><text font-family="Aptos,Aptos_MSFontService,sans-serif" font-weight="400" font-size="69" transform="matrix(1 0 0 1 1106.27 1614)">Is the optimized angle </text><text font-family="Aptos,Aptos_MSFontService,sans-serif" font-weight="400" font-size="69" transform="matrix(1 0 0 1 1119.52 1697)">to obtain the energy?</text><path d="M3038.5 1640 3424 1355.5 3809.5 1640 3424 1924.5Z" stroke="#0F9ED5" stroke-width="6.875" stroke-miterlimit="8" fill="#FFFFFF" fill-rule="evenodd"/><text font-family="Aptos,Aptos_MSFontService,sans-serif" font-weight="400" font-size="69" transform="matrix(1 0 0 1 3305.6 1629)">Is</text><text font-family="Aptos,Aptos_MSFontService,sans-serif" font-weight="400" font-size="69" transform="matrix(1 0 0 1 3370.34 1629)">direct</text><text font-family="Aptos,Aptos_MSFontService,sans-serif" font-weight="400" font-size="69" transform="matrix(1 0 0 1 3250.3 1712)">irradiance</text><text font-family="Aptos,Aptos_MSFontService,sans-serif" font-weight="400" font-size="69" transform="matrix(1 0 0 1 3562.8 1712)">?</text><path d="M126.5 1052C126.5 1002.57 166.571 962.5 216 962.5L763 962.5C812.43 962.5 852.501 1002.57 852.501 1052L852.5 1052C852.5 1101.43 812.429 1141.5 763 1141.5L216 1141.5C166.571 1141.5 126.5 1101.43 126.5 1052Z" stroke="#E97132" stroke-width="6.875" stroke-miterlimit="8" fill="#FFFFFF" fill-rule="evenodd"/><text font-family="Aptos,Aptos_MSFontService,sans-serif" font-weight="400" font-size="83" transform="matrix(1 0 0 1 322.105 1078)">Clear Sky</text><path d="M380.5 2151C380.5 2091.08 429.077 2042.5 489 2042.5L999 2042.5C1058.92 2042.5 1107.5 2091.08 1107.5 2151L1107.5 2151C1107.5 2210.92 1058.92 2259.5 999 2259.5L489 2259.5C429.077 2259.5 380.5 2210.92 380.5 2151Z" stroke="#E97132" stroke-width="6.875" stroke-miterlimit="8" fill="#FFFFFF" fill-rule="evenodd"/><text font-family="Aptos,Aptos_MSFontService,sans-serif" font-weight="400" font-size="83" transform="matrix(1 0 0 1 504.241 2177)">Transposition</text><path d="M1752.5 2155.5C1752.5 2093.09 1803.09 2042.5 1865.5 2042.5L2365.5 2042.5C2427.91 2042.5 2478.5 2093.09 2478.5 2155.5L2478.5 2155.5C2478.5 2217.91 2427.91 2268.5 2365.5 2268.5L1865.5 2268.5C1803.09 2268.5 1752.5 2217.91 1752.5 2155.5Z" stroke="#E97132" stroke-width="6.875" stroke-miterlimit="8" fill="#FFFFFF" fill-rule="evenodd"/><text font-family="Aptos,Aptos_MSFontService,sans-serif" font-weight="400" font-size="83" transform="matrix(1 0 0 1 1871.11 2132)">Plane of Array </text><text font-family="Aptos,Aptos_MSFontService,sans-serif" font-weight="400" font-size="83" transform="matrix(1 0 0 1 2013.33 2231)">(POA)</text><path d="M2525.5 2155.5C2525.5 2093.09 2576.09 2042.5 2638.5 2042.5L3139.5 2042.5C3201.91 2042.5 3252.5 2093.09 3252.5 2155.5L3252.5 2155.5C3252.5 2217.91 3201.91 2268.5 3139.5 2268.5L2638.5 2268.5C2576.09 2268.5 2525.5 2217.91 2525.5 2155.5Z" stroke="#E97132" stroke-width="6.875" stroke-miterlimit="8" fill="#FFFFFF" fill-rule="evenodd"/><text font-family="Aptos,Aptos_MSFontService,sans-serif" font-weight="400" font-size="83" transform="matrix(1 0 0 1 2614.68 2181)">Decomposition</text><path d="M3588.5 2155.5C3588.5 2093.09 3639.09 2042.5 3701.5 2042.5L4201.5 2042.5C4263.91 2042.5 4314.5 2093.09 4314.5 2155.5L4314.5 2155.5C4314.5 2217.91 4263.91 2268.5 4201.5 2268.5L3701.5 2268.5C3639.09 2268.5 3588.5 2217.91 3588.5 2155.5Z" stroke="#E97132" stroke-width="6.875" stroke-miterlimit="8" fill="#FFFFFF" fill-rule="evenodd"/><text font-family="Aptos,Aptos_MSFontService,sans-serif" font-weight="400" font-size="83" transform="matrix(1 0 0 1 3683.6 2181)">DNI Estimation</text><path d="M1418.94 304.5 1418.94 399.623 1412.06 399.623 1412.06 304.5ZM1429.25 395.04 1415.5 422.54 1401.75 395.04Z" fill="#156082"/><path d="M0-3.4375 463.401-3.4375 463.401 198.914 456.526 198.914 456.526 0 459.963 3.4375 0 3.4375ZM473.713 194.331 459.963 221.831 446.213 194.331Z" fill="#156082" transform="matrix(-1 1.22465e-16 1.22465e-16 1 949.464 740.5)"/><path d="M1880.5 737.062 2424.55 737.062 2424.55 866.214 2417.68 866.214 2417.68 740.5 2421.12 743.937 1880.5 743.937ZM2434.87 861.631 2421.12 889.131 2407.37 861.631Z" fill="#156082"/><path d="M0-3.4375 610.857-3.4375 610.857 159.416 603.982 159.416 603.982 0 607.419 3.4375 0 3.4375ZM621.169 154.832 607.419 182.332 593.669 154.832Z" fill="#156082" transform="matrix(-1 1.22465e-16 1.22465e-16 1 2035.92 1173.5)"/><path d="M2806.5 1170.06 3427.47 1170.06 3427.47 1332.92 3420.59 1332.92 3420.59 1173.5 3424.03 1176.94 2806.5 1176.94ZM3437.78 1328.33 3424.03 1355.83 3410.28 1328.33Z" fill="#156082"/><path d="M0-3.4375 236.196-3.4375 236.196 379.614 229.321 379.614 229.321 0 232.759 3.4375 0 3.4375ZM246.509 375.03 232.759 402.53 219.009 375.03Z" fill="#156082" transform="matrix(-1 1.22465e-16 1.22465e-16 1 977.259 1640.5)"/><path d="M1880.5 1637.06 2118.34 1637.06 2118.34 2020.11 2111.47 2020.11 2111.47 1640.5 2114.91 1643.94 1880.5 1643.94ZM2128.66 2015.53 2114.91 2043.03 2101.16 2015.53Z" fill="#156082"/><path d="M0-3.4375 153.401-3.4375 153.401 379.613 146.526 379.613 146.526 0 149.963 3.4375 0 3.4375ZM163.713 375.03 149.963 402.53 136.213 375.03Z" fill="#156082" transform="matrix(-1 1.22465e-16 1.22465e-16 1 3039.46 1640.5)"/><path d="M3809.5 1637.06 3955.36 1637.06 3955.36 2020.11 3948.49 2020.11 3948.49 1640.5 3951.93 1643.94 3809.5 1643.94ZM3965.68 2015.53 3951.93 2043.03 3938.18 2015.53Z" fill="#156082"/><text font-family="Aptos,Aptos_MSFontService,sans-serif" font-weight="400" font-size="83" transform="matrix(1 0 0 1 807.439 1599)">No</text><text font-family="Aptos,Aptos_MSFontService,sans-serif" font-weight="400" font-size="83" transform="matrix(1 0 0 1 666.358 699)">No</text><text font-family="Aptos,Aptos_MSFontService,sans-serif" font-weight="400" font-size="83" transform="matrix(1 0 0 1 2910.22 1599)">No</text><text font-family="Aptos,Aptos_MSFontService,sans-serif" font-weight="400" font-size="83" transform="matrix(1 0 0 1 1699.01 1135)">No</text><text font-family="Aptos,Aptos_MSFontService,sans-serif" font-weight="400" font-size="83" transform="matrix(1 0 0 1 2097.95 716)">Ye</text><text font-family="Aptos,Aptos_MSFontService,sans-serif" font-weight="400" font-size="83" transform="matrix(1 0 0 1 2180.43 716)">s</text><text font-family="Aptos,Aptos_MSFontService,sans-serif" font-weight="400" font-size="83" transform="matrix(1 0 0 1 1935.34 1596)">Ye</text><text font-family="Aptos,Aptos_MSFontService,sans-serif" font-weight="400" font-size="83" transform="matrix(1 0 0 1 2017.82 1596)">s</text><text font-family="Aptos,Aptos_MSFontService,sans-serif" font-weight="400" font-size="83" transform="matrix(1 0 0 1 3817.44 1603)">Ye</text><text font-family="Aptos,Aptos_MSFontService,sans-serif" font-weight="400" font-size="83" transform="matrix(1 0 0 1 3899.92 1603)">s</text><text font-family="Aptos,Aptos_MSFontService,sans-serif" font-weight="400" font-size="83" transform="matrix(1 0 0 1 3052.76 1136)">Ye</text><text font-family="Aptos,Aptos_MSFontService,sans-serif" font-weight="400" font-size="83" transform="matrix(1 0 0 1 3135.24 1136)">s</text></g></svg>