<svg width="3170" height="2607" xmlns="http://www.w3.org/2000/svg" xmlns:xlink="http://www.w3.org/1999/xlink" xml:space="preserve" overflow="hidden"><g transform="translate(-473 128)"><path d="M0 0 212.734 127.159" stroke="#156082" stroke-width="6.875" stroke-miterlimit="8" fill="none" fill-rule="evenodd" transform="matrix(-1 0 0 1 1566.23 827.5)"/><path d="M1460.58 840.193 1469.24 814.092 1472.5 815.175 1463.84 841.276ZM1472.71 804.336 1473.88 801.102 1477.11 802.268 1475.95 805.502ZM1477.38 791.401 1480.76 782.019 1487.14 765.649 1490.35 766.897 1483.99 783.185 1480.61 792.567ZM1490.89 756.041 1492.14 752.838 1495.34 754.087 1494.09 757.29ZM1496.12 743.279 1505 722.129 1506.89 717.929 1510.03 719.34 1508.17 723.459 1499.29 744.609ZM1511.13 708.526 1512.54 705.391 1515.67 706.803 1514.26 709.937ZM1516.77 695.988 1518.21 692.798 1528.64 671.134 1531.74 672.625 1521.34 694.209 1519.91 697.4ZM1533.19 661.829 1534.76 658.771 1537.82 660.342 1536.25 663.4ZM1539.47 649.598 1546.75 635.426 1552.32 625.236 1555.33 626.884 1549.81 636.996 1542.53 651.169ZM1557.26 616.186 1558.91 613.17 1561.93 614.818 1560.28 617.835ZM1563.96 604.129 1577.76 580.344 1580.74 582.069 1566.93 605.854ZM1583.18 571.515 1584.98 568.587 1587.9 570.388 1586.1 573.316ZM1590.38 559.803 1594.7 552.776 1605.23 536.607 1608.11 538.483 1597.63 554.577 1593.31 561.604ZM1610.86 527.965 1612.02 526.185 1612.79 525.066 1615.62 527.015 1614.9 528.06 1613.74 529.841ZM1618.63 516.572 1629.98 500.093 1634.41 493.995 1637.19 496.017 1632.81 502.042 1621.46 518.521ZM1640.47 485.654 1642.49 482.874 1645.27 484.895 1643.25 487.675ZM1648.56 474.532 1648.57 474.513 1665.32 452.678 1668.05 454.77 1651.35 476.535 1651.34 476.554ZM1671.75 444.561 1673.92 441.888 1676.59 444.05 1674.43 446.723ZM1680.4 433.871 1687.63 424.938 1698.04 412.721 1700.66 414.952 1690.3 427.1 1683.07 436.033ZM1704.74 404.874 1706.97 402.259 1709.58 404.489 1707.35 407.105ZM1713.85 394.525 1729.1 377.559 1732.35 374.119 1734.85 376.482 1731.66 379.857 1716.41 396.823ZM1739.44 366.629 1741.81 364.133 1744.3 366.496 1741.94 368.992ZM1748.9 356.643 1750.71 354.724 1768.29 337.09 1770.73 339.517 1753.21 357.087 1751.39 359.006ZM1775.68 329.826 1778.17 327.456 1780.54 329.946 1778.05 332.316ZM1785.64 320.346 1795.64 310.822 1805.83 301.618 1808.14 304.169 1798.01 313.312 1788.01 322.836ZM1813.48 294.706 1816.04 292.401 1818.34 294.952 1815.79 297.256ZM1823.83 285.585 1842.77 269.363 1844.8 267.717 1846.96 270.386 1845.01 271.973 1826.07 288.196ZM1852.8 261.216 1855.47 259.049 1857.64 261.718 1854.97 263.885ZM1863.47 252.549 1867.13 249.579 1885.23 235.657 1887.33 238.382 1869.3 252.248 1865.64 255.217ZM1893.47 229.38 1896.25 227.357 1898.27 230.137 1895.49 232.16ZM1904.59 221.289 1917.4 211.967 1927.04 205.333 1928.99 208.165 1919.42 214.746 1906.61 224.068ZM1935.53 199.489 1938.37 197.54 1940.32 200.373 1937.48 202.321ZM1946.97 191.767 1969.64 177.042 1970.08 176.777 1971.87 179.709 1971.52 179.925 1948.84 194.65ZM1978.87 171.395 1981.8 169.601 1983.6 172.533 1980.67 174.327ZM1990.6 164.219 1996.49 160.618 2014.38 150.318 2016.1 153.298 1998.28 163.55 1992.4 167.151ZM2023.32 145.175 2023.79 144.903 2026.38 143.506 2028.01 146.53 2025.51 147.883 2025.03 148.154ZM2035.45 138.605 2051.55 129.91 2059.8 125.735 2061.35 128.802 2053.18 132.934 2037.08 141.629ZM2069.01 121.081 2072.07 119.53 2073.62 122.598 2070.56 124.149ZM2081.34 114.898 2105.3 103.588 2106.77 106.697 2082.81 118.006ZM1487.23 820.975 1461.14 843.972 1453.96 809.936C1453.77 809.007 1454.36 808.096 1455.29 807.9 1456.22 807.704 1457.13 808.299 1457.33 809.227L1463.89 840.38 1461.07 839.445 1484.96 818.396C1485.67 817.769 1486.76 817.837 1487.39 818.549 1488.01 819.262 1487.94 820.348 1487.23 820.975ZM2074.47 100.661 2109.12 103.686 2089.43 132.36C2088.89 133.143 2087.82 133.342 2087.04 132.804 2086.26 132.267 2086.06 131.197 2086.6 130.414L2104.62 104.169 2105.88 106.855 2074.17 104.086C2073.22 104.003 2072.52 103.17 2072.61 102.224 2072.69 101.278 2073.52 100.579 2074.47 100.661Z" fill="#E97132"/><path d="M1406.51 1386.93 1405.02 1373.27 1408.44 1372.89 1409.93 1386.56ZM1403.9 1362.98 1403.6 1359.55 1407.03 1359.25 1407.33 1362.68ZM1402.7 1349.28 1401.58 1336.53 1401.51 1335.54 1404.94 1335.32 1405 1336.23 1406.13 1348.98ZM1400.83 1325.25 1400.6 1321.82 1404.03 1321.6 1404.26 1325.03ZM1399.92 1311.54 1399.78 1309.57 1399.25 1297.77 1402.68 1297.61 1403.21 1309.34 1403.35 1311.31ZM1398.78 1287.46 1398.62 1284.03 1402.06 1283.87 1402.21 1287.31ZM1398.34 1273.68 1398.01 1259.94 1401.44 1259.86 1401.78 1273.6ZM1397.88 1249.59 1397.87 1246.15 1401.31 1246.14 1401.32 1249.58ZM1397.84 1235.84 1397.82 1228.61 1397.93 1222.06 1401.37 1222.12 1401.25 1228.6 1401.28 1235.83ZM1398.12 1211.75 1398.18 1208.31 1401.62 1208.37 1401.55 1211.81ZM1398.44 1197.96 1398.98 1184.22 1402.41 1184.36 1401.88 1198.1ZM1399.4 1173.88 1399.6 1170.45 1403.03 1170.66 1402.83 1174.09ZM1400.22 1160.16 1400.97 1147.76 1401.08 1146.4 1404.5 1146.68 1404.4 1147.97 1403.65 1160.37ZM1401.91 1136.12 1402.19 1132.69 1405.62 1132.97 1405.34 1136.4ZM1403.03 1122.42 1403.15 1120.88 1404.4 1108.7 1407.82 1109.05 1406.58 1121.15 1406.45 1122.69ZM1405.46 1098.44 1405.81 1095.02 1409.23 1095.37 1408.87 1098.79ZM1407.06 1084.75 1408.75 1071.1 1412.16 1071.53 1410.47 1085.17ZM1410.16 1060.85 1410.65 1057.45 1414.06 1057.94 1413.56 1061.35ZM1412.14 1047.24 1413.11 1040.56 1414.27 1033.62 1417.66 1034.19 1416.51 1041.06 1415.54 1047.74ZM1415.97 1023.45 1416.54 1020.06 1419.93 1020.63 1419.36 1024.02ZM1418.33 1009.87 1420.89 996.36 1424.26 996.999 1421.71 1010.51ZM1422.83 986.196 1423.54 982.833 1426.91 983.543 1426.2 986.906ZM1425.67 972.743 1427.46 964.293 1430.82 965.003 1429.04 973.453ZM1422.75 1358.37 1408.59 1390.14 1387.91 1362.17C1387.34 1361.41 1387.5 1360.33 1388.27 1359.77 1389.03 1359.21 1390.1 1359.37 1390.67 1360.13L1409.6 1385.73 1406.65 1386.05 1419.61 1356.97C1420 1356.1 1421.01 1355.71 1421.88 1356.1 1422.75 1356.48 1423.14 1357.5 1422.75 1358.37ZM1406.49 987.087 1429.84 961.31 1440.79 994.327C1441.08 995.228 1440.6 996.201 1439.7 996.499 1438.79 996.798 1437.82 996.31 1437.52 995.409L1427.51 965.188 1430.41 965.802 1409.04 989.395C1408.4 990.099 1407.31 990.152 1406.61 989.515 1405.91 988.877 1405.85 987.791 1406.49 987.087Z" fill="#E97132"/><path d="M0 0 2950.55 18.866" stroke="#000000" stroke-width="6.875" stroke-miterlimit="8" fill="none" fill-rule="evenodd" transform="matrix(-1 0 0 1 3468.05 1238.5)"/><path d="M0 0 1913.12 1844.95" stroke="#000000" stroke-width="6.875" stroke-miterlimit="8" fill="none" fill-rule="evenodd" transform="matrix(-1 0 0 1 3071.62 332.5)"/><path d="M0 0 3.40863 2564.83" stroke="#000000" stroke-width="6.875" stroke-miterlimit="8" fill="none" fill-rule="evenodd" transform="matrix(-1 0 0 1 2114.91 -89.4999)"/><path d="M932.5 1246C932.5 610.044 1460.13 94.5 2111 94.5 2761.87 94.5 3289.5 610.044 3289.5 1246 3289.5 1881.96 2761.87 2397.5 2111 2397.5 1460.13 2397.5 932.5 1881.96 932.5 1246Z" stroke="#4EA72E" stroke-width="6.875" stroke-miterlimit="8" fill="none" fill-rule="evenodd"/><path d="M938.5 1245.5C938.5 1146.64 1465.24 1066.5 2115 1066.5 2764.76 1066.5 3291.5 1146.64 3291.5 1245.5 3291.5 1344.36 2764.76 1424.5 2115 1424.5 1465.24 1424.5 938.5 1344.36 938.5 1245.5Z" stroke="#156082" stroke-width="4.58333" stroke-miterlimit="8" fill="none" fill-rule="evenodd"/><text font-family="Times New Roman,Times New Roman_MSFontService,sans-serif" font-weight="400" font-size="73" transform="matrix(1 0 0 1 2128.54 1342)">Earth</text><text font-family="Times New Roman,Times New Roman_MSFontService,sans-serif" font-weight="400" font-size="73" transform="matrix(1 0 0 1 517.299 1237)">Observer</text><text font-family="Times New Roman,Times New Roman_MSFontService,sans-serif" font-weight="400" font-size="73" transform="matrix(0.705432 -0.708777 0.708777 0.705432 2464.37 881)">Celestial </text><text font-family="Times New Roman,Times New Roman_MSFontService,sans-serif" font-weight="400" font-size="73" transform="matrix(0.705432 -0.708777 0.708777 0.705432 2659.17 685)">axis</text><text font-family="Times New Roman,Times New Roman_MSFontService,sans-serif" font-weight="400" font-size="73" transform="matrix(0.705432 -0.708777 0.708777 0.705432 2755.76 588)">of</text><text font-family="Times New Roman,Times New Roman_MSFontService,sans-serif" font-weight="400" font-size="73" transform="matrix(0.705432 -0.708777 0.708777 0.705432 2811.94 532)">Earth</text><path d="M148.702 1567.03C65.8018 1562.97-0.77109 1208.89 0.00730231 776.176 0.194399 672.168 4.34698 569.395 12.2229 473.851" stroke="#FFC000" stroke-width="4.58333" stroke-miterlimit="8" fill="none" fill-rule="evenodd" transform="matrix(0.90906 -0.416665 -0.416665 -0.90906 1867.66 1856.82)"/><path d="M307.172 783.93C310.758 1235.58 244.932 1617.2 160.146 1636.29 157.311 1636.93 154.473 1637.15 151.636 1636.96" stroke="#FFC000" stroke-width="4.58333" stroke-linejoin="round" stroke-miterlimit="10" stroke-dasharray="18.3333 13.75" fill="none" fill-rule="evenodd" transform="matrix(0.90906 -0.416665 -0.416665 -0.90906 1885.41 1923.38)"/><text font-family="Times New Roman,Times New Roman_MSFontService,sans-serif" font-weight="400" font-size="55" transform="matrix(1 0 0 1 3323.83 1307)">North</text><text font-family="Times New Roman,Times New Roman_MSFontService,sans-serif" font-weight="400" font-size="55" transform="matrix(1 0 0 1 755.604 1310)">South</text><path d="M1441.5 897.5 2078.54 1229.28" stroke="#E97132" stroke-width="9.16667" stroke-miterlimit="8" fill="none" fill-rule="evenodd"/><path d="M1384.5 898C1384.5 866.244 1410.02 840.5 1441.5 840.5 1472.98 840.5 1498.5 866.244 1498.5 898 1498.5 929.756 1472.98 955.5 1441.5 955.5 1410.02 955.5 1384.5 929.756 1384.5 898Z" stroke="#FFC000" stroke-width="6.875" stroke-miterlimit="8" fill="#FFFF00" fill-rule="evenodd"/><text font-family="Times New Roman,Times New Roman_MSFontService,sans-serif" font-weight="400" font-size="55" transform="matrix(0.742529 -0.669814 0.669814 0.742529 1206.16 2201)">South</text><text font-family="Times New Roman,Times New Roman_MSFontService,sans-serif" font-weight="400" font-size="55" transform="matrix(0.752728 -0.658331 0.658331 0.752728 3013.14 467)">North</text><path d="M2686.95 2251.13C2650.04 2318.65 2359.41 1925.34 2037.8 1372.65 1717.83 822.784 1487.42 321.723 1521.82 250.574" stroke="#156082" stroke-width="4.58333" stroke-miterlimit="8" fill="none" fill-rule="evenodd"/><path d="M1526.39 248.837C1553.8 169.063 1836.8 550.238 2158.48 1100.22 2480.16 1650.19 2718.72 2160.71 2691.3 2240.48 2690.45 2242.98 2689.33 2245.02 2687.95 2246.63" stroke="#156082" stroke-width="4.58333" stroke-miterlimit="8" stroke-dasharray="18.3333 13.75" fill="none" fill-rule="evenodd"/><path d="M21.6405 8.28725 194.477 106.015 191.093 111.999 18.2566 14.2718ZM17.1706 25.5046 0 0 30.706 1.56632ZM195.563 94.7819 212.734 120.287 182.028 118.72Z" fill="#156082" transform="matrix(1 0 0 -1 1491.5 870.786)"/><rect x="1309.5" y="1115.5" width="227" height="133" stroke="#E97132" stroke-width="3.4375" stroke-linejoin="round" stroke-miterlimit="10" stroke-dasharray="13.75 10.3125 3.4375 10.3125" fill="#FFFFFF"/><text font-family="Times New Roman,Times New Roman_MSFontService,sans-serif" font-weight="400" font-size="37" transform="matrix(1 0 0 1 1383.74 1167)">Solar </text><text font-family="Times New Roman,Times New Roman_MSFontService,sans-serif" font-weight="400" font-size="37" transform="matrix(1 0 0 1 1345.65 1220)">Altitude </text><text font-family="Times New Roman,Times New Roman_MSFontService,sans-serif" font-weight="400" font-size="46" transform="matrix(1 0 0 1 1475.13 1220)">α</text><rect x="1779.5" y="182.5" width="199" height="134" stroke="#E97132" stroke-width="3.4375" stroke-linejoin="round" stroke-miterlimit="10" stroke-dasharray="13.75 10.3125 3.4375 10.3125" fill="#FFFFFF"/><text font-family="Times New Roman,Times New Roman_MSFontService,sans-serif" font-weight="400" font-size="37" transform="matrix(1 0 0 1 1830.58 234)">Zenith </text><text font-family="Times New Roman,Times New Roman_MSFontService,sans-serif" font-weight="400" font-size="37" transform="matrix(1 0 0 1 1815.41 287)">angle</text><text font-family="Times New Roman,Times New Roman_MSFontService,sans-serif" font-weight="400" font-size="46" transform="matrix(1 0 0 1 1903.64 287)">θ</text><text font-family="Times New Roman,Times New Roman_MSFontService,sans-serif" font-weight="400" font-size="37" transform="matrix(1 0 0 1 1925.41 287)">z </text><text font-family="Times New Roman,Times New Roman_MSFontService,sans-serif" font-weight="400" font-size="73" transform="matrix(1 0 0 1 2128.54 -35)">Local </text><text font-family="Times New Roman,Times New Roman_MSFontService,sans-serif" font-weight="400" font-size="73" transform="matrix(1 0 0 1 2128.54 53)">Zenith</text><path d="M1544.62 784.486 1605.42 752.078 1647.22 830.495 1586.42 862.902Z" stroke="#156082" stroke-width="6.875" stroke-miterlimit="8" fill="#FFFFFF" fill-rule="evenodd"/><text font-family="Times New Roman,Times New Roman_MSFontService,sans-serif" font-weight="400" font-size="46" transform="matrix(0.882479 -0.470352 0.470352 0.882479 1593.87 827)">δ</text><rect x="891.5" y="124.5" width="438" height="92.0001" stroke="#FFC000" stroke-width="3.4375" stroke-linejoin="round" stroke-miterlimit="10" fill="none"/><text font-family="Times New Roman,Times New Roman_MSFontService,sans-serif" font-weight="400" font-size="48" transform="matrix(1 0 0 1 923.768 187)">Daily Path </text><text font-family="Times New Roman,Times New Roman_MSFontService,sans-serif" font-weight="400" font-size="48" transform="matrix(1 0 0 1 1139.76 187)">of</text><text font-family="Times New Roman,Times New Roman_MSFontService,sans-serif" font-weight="400" font-size="48" transform="matrix(1 0 0 1 1191.89 187)">Sun</text><path d="M165.857 1568.16 161.719 1567.5C161.615 1567.48 161.512 1567.45 161.412 1567.42L153.988 1564.77C153.9 1564.73 153.814 1564.69 153.732 1564.65L146.39 1560.57 138.938 1554.95 131.631 1547.97 124.467 1539.65 117.444 1530.02 110.561 1519.12 103.821 1506.97 97.2259 1493.6 90.7813 1479.03 84.4923 1463.29 78.3648 1446.41 72.4053 1428.42 66.6205 1409.33 61.0173 1389.19 55.6026 1368.01 50.3837 1345.82 45.3678 1322.66 40.562 1298.55 35.9739 1273.52 31.6106 1247.59 27.4795 1220.79 23.5881 1193.15 19.9438 1164.71 16.554 1135.48 13.4261 1105.49 10.5675 1074.78 7.98573 1043.37 5.68822 1011.28 3.68241 978.555 2.14971 948.611 5.58272 948.435 7.11347 978.345 9.11694 1011.04 11.4117 1043.09 13.9902 1074.46 16.845 1105.14 19.9686 1135.08 23.3534 1164.27 26.9921 1192.68 30.8769 1220.27 35.0004 1247.02 39.355 1272.9 43.9333 1297.88 48.7274 1321.94 53.7299 1345.04 58.933 1367.16 64.3291 1388.27 69.9102 1408.33 75.6686 1427.33 81.5961 1445.24 87.6844 1462.02 93.9251 1477.64 100.309 1492.08 106.827 1505.3 113.468 1517.29 120.222 1528 127.074 1537.41 134.009 1545.49 141.011 1552.21 148.061 1557.56 155.402 1561.64 155.145 1561.53 162.568 1564.18 162.261 1564.1 166.398 1564.76ZM142.586 1544.96 169.496 1567 137.066 1579.57C136.181 1579.92 135.185 1579.48 134.842 1578.59 134.499 1577.71 134.938 1576.71 135.823 1576.37L165.506 1564.86 165.038 1567.79 140.408 1547.62C139.673 1547.02 139.566 1545.93 140.167 1545.2 140.769 1544.46 141.852 1544.36 142.586 1544.96ZM-12.2758 976.018 3.69186 945.116 22.731 974.226C23.2506 975.021 23.0278 976.086 22.2333 976.605 21.4389 977.125 20.3737 976.902 19.8541 976.108L2.4278 949.464 5.39316 949.312-9.22189 977.596C-9.65765 978.439-10.6945 978.769-11.5378 978.334-12.3812 977.898-12.7115 976.861-12.2758 976.018Z" fill="#FFC000" transform="matrix(0.927761 -0.373176 -0.373176 -0.927761 1727.66 1819.77)"/><path d="M1348.78 371.214 1252.24 218.53 1254.18 217.305 1350.72 369.989ZM1253.2 249.775 1252 215.995 1282 231.572C1282.56 231.863 1282.78 232.555 1282.48 233.117 1282.19 233.678 1281.5 233.897 1280.94 233.606L1252.68 218.934 1254.36 217.877 1255.49 249.693C1255.52 250.326 1255.02 250.857 1254.39 250.879 1253.76 250.902 1253.23 250.407 1253.2 249.775Z" fill="#FFC000"/><path d="M1247.78 629.882 1314.84 614.039 1335.27 700.518 1268.21 716.361Z" stroke="#FFC000" stroke-width="3.4375" stroke-miterlimit="8" fill="#FFFFFF" fill-rule="evenodd"/><text font-family="Times New Roman,Times New Roman_MSFontService,sans-serif" font-weight="400" font-size="46" transform="matrix(0.973206 -0.229936 0.229936 0.973206 1280.45 684)">ω</text><text font-family="Times New Roman,Times New Roman_MSFontService,sans-serif" font-weight="400" font-size="73" transform="matrix(0.447503 0.894283 -0.894283 0.447503 2440.83 1514)">Celestial </text><text font-family="Times New Roman,Times New Roman_MSFontService,sans-serif" font-weight="400" font-size="73" transform="matrix(0.447503 0.894283 -0.894283 0.447503 2564.41 1761)">Equator</text><path d="M2077.89 1228.98C2086.78 1211.15 2108.75 1204.05 2126.96 1213.12 2145.17 1222.2 2152.72 1244.01 2143.83 1261.85 2134.94 1279.68 2112.97 1286.78 2094.77 1277.7 2076.56 1268.63 2069 1246.81 2077.89 1228.98Z" stroke="#042433" stroke-width="6.875" stroke-miterlimit="8" fill="#156082" fill-rule="evenodd"/><path d="M1391.34 1442.77 1366.62 1439.52 1338.14 1435.55 1310.44 1431.45 1283.53 1427.22 1257.4 1422.87 1232.09 1418.4 1207.59 1413.81 1183.91 1409.12 1161.07 1404.32 1139.08 1399.41 1117.94 1394.4 1097.67 1389.29 1078.27 1384.09 1059.76 1378.8 1042.15 1373.42 1025.44 1367.95 1009.65 1362.4 994.777 1356.77 980.843 1351.07 967.853 1345.29 955.816 1339.44 944.742 1333.53 934.639 1327.54 925.517 1321.49 917.383 1315.36 910.249 1309.17 904.124 1302.9 899.021 1296.56 894.956 1290.13 891.952 1283.61C891.904 1283.51 891.864 1283.4 891.832 1283.29L890.035 1277.01C890.001 1276.89 889.976 1276.76 889.962 1276.64L889.755 1274.84 894.309 1274.31 894.516 1276.12 894.442 1275.75 896.239 1282.03 896.12 1281.7 898.835 1287.69 902.596 1293.69 907.405 1299.7 913.256 1305.71 920.141 1311.7 928.052 1317.67 936.976 1323.6 946.903 1329.48 957.82 1335.32 969.716 1341.11 982.579 1346.83 996.399 1352.49 1011.16 1358.08 1026.86 1363.59 1043.49 1369.03 1061.02 1374.39 1079.46 1379.66 1098.79 1384.85 1119 1389.94 1140.08 1394.94 1162.02 1399.83 1184.8 1404.62 1208.43 1409.31 1232.88 1413.88 1258.16 1418.35 1284.24 1422.69 1311.11 1426.91 1338.78 1431.01 1367.22 1434.98 1391.94 1438.23ZM1367.87 1419.2 1396.15 1441.09 1363.17 1454.94C1362.01 1455.43 1360.66 1454.88 1360.17 1453.71 1359.68 1452.54 1360.23 1451.2 1361.4 1450.71L1390.76 1438.39 1390.24 1442.31 1365.06 1422.83C1364.06 1422.05 1363.88 1420.61 1364.66 1419.61 1365.43 1418.61 1366.87 1418.43 1367.87 1419.2ZM877.13 1302.8 891.514 1270.06 912.938 1298.7C913.696 1299.71 913.489 1301.15 912.475 1301.9 911.462 1302.66 910.026 1302.45 909.268 1301.44L890.197 1275.95 894.13 1275.5 881.326 1304.65C880.817 1305.8 879.465 1306.33 878.307 1305.82 877.148 1305.31 876.621 1303.96 877.13 1302.8Z"/><path d="M993.212 1324.71 1253.29 1395.18 1230.05 1480.94 969.973 1410.48Z" stroke="#000000" stroke-width="3.4375" stroke-miterlimit="8" fill="#FFFFFF" fill-rule="evenodd"/><text font-family="Times New Roman,Times New Roman_MSFontService,sans-serif" font-weight="400" font-size="37" transform="matrix(0.965197 0.261523 -0.261523 0.965197 1026.14 1396)">Azimuth</text><text font-family="Times New Roman,Times New Roman_MSFontService,sans-serif" font-weight="400" font-size="46" transform="matrix(0.965197 0.261523 -0.261523 0.965197 1161.07 1433)">ψ</text><text font-family="Times New Roman,Times New Roman_MSFontService,sans-serif" font-weight="400" font-size="55" transform="matrix(1 0 0 1 2142.53 1490)">East</text><path d="M1495.89 171.017 1528.42 152.711 1564.57 134.028 1601.28 116.678 1638.52 100.67 1676.25 86.0127 1714.43 72.7161 1753.03 60.789 1792.01 50.2408 1831.33 41.0807 1870.96 33.3178 1910.85 26.9614 1950.99 22.0207 1991.31 18.505 2031.8 16.4234 2072.41 15.7852 2109.71 16.5314 2109.64 19.9683 2072.47 19.2223 2031.98 19.8564 1991.61 21.9295 1951.41 25.4325 1911.39 30.3561 1871.62 36.6912 1832.11 44.4285 1792.9 53.559 1754.04 64.0733 1715.56 75.9624 1677.49 89.2169 1639.88 103.828 1602.75 119.786 1566.15 137.082 1530.11 155.707 1497.58 174.013ZM1528.54 174.727 1493.76 174.188 1511.35 144.179C1511.83 143.36 1512.88 143.085 1513.7 143.565 1514.52 144.045 1514.8 145.098 1514.32 145.917L1498.22 173.384 1496.76 170.796 1528.6 171.29C1529.54 171.304 1530.3 172.086 1530.29 173.035 1530.27 173.984 1529.49 174.741 1528.54 174.727ZM2083.4 0.193504 2113.09 18.3182 2082.7 35.239C2081.87 35.7008 2080.82 35.4028 2080.36 34.5735 2079.9 33.7441 2080.2 32.6975 2081.03 32.2357L2108.84 16.7482 2108.78 19.7168 2081.61 3.12745C2080.8 2.63282 2080.54 1.57507 2081.04 0.764879 2081.53-0.0453072 2082.59-0.301121 2083.4 0.193504Z" fill="#156082"/><path d="M1475.5 150.5 1527.18 249.394" stroke="#156082" stroke-width="3.4375" stroke-miterlimit="8" fill="none" fill-rule="evenodd"/><path d="M1651.42 38.6457 1883.09-22.4772 1906.04 64.5042 1674.37 125.627Z" stroke="#156082" stroke-width="3.4375" stroke-miterlimit="8" fill="#FFFFFF" fill-rule="evenodd"/><text font-family="Times New Roman,Times New Roman_MSFontService,sans-serif" font-weight="400" font-size="37" transform="matrix(0.966913 -0.255107 0.255107 0.966913 1706.52 87)">Latitude</text><text font-family="Times New Roman,Times New Roman_MSFontService,sans-serif" font-weight="400" font-size="46" transform="matrix(0.966913 -0.255107 0.255107 0.966913 1835.6 53)">ϕ</text></g></svg>