<svg width="4345" height="1840" xmlns="http://www.w3.org/2000/svg" xmlns:xlink="http://www.w3.org/1999/xlink" xml:space="preserve" overflow="hidden"><defs><clipPath id="clip0"><rect x="7" y="296" width="4345" height="1840"/></clipPath></defs><g clip-path="url(#clip0)" transform="translate(-7 -296)"><path d="M4.57609 1041.39C-17.3682 702.41 40.5641 362.071 153.882 164.256" stroke="#4EA72E" stroke-width="6.875" stroke-linecap="square" stroke-miterlimit="8" stroke-dasharray="20.625 6.875" fill="none" fill-rule="evenodd" transform="matrix(-0.930548 -0.36617 -0.36617 0.930548 4543.31 1086.97)"/><path d="M749.481 1416.93C681.51 1250.07 660.906 1069.44 690.494 899.797" stroke="#FFC000" stroke-width="6.875" stroke-miterlimit="8" fill="none" fill-rule="evenodd"/><path d="M68.4999 1177.5 2163.94 1229.45" stroke="#4EA72E" stroke-width="6.875" stroke-miterlimit="8" fill="none" fill-rule="evenodd"/><path d="M0 0 1446.81 246.967" stroke="#E97132" stroke-width="4.58333" stroke-miterlimit="8" fill="none" fill-rule="evenodd" transform="matrix(1 0 0 -1 693.5 1466.47)"/><path d="M2111.63 1214.15 693.5 887.5" stroke="#E97132" stroke-width="4.58333" stroke-miterlimit="8" fill="none" fill-rule="evenodd"/><path d="M0 0 170.854 341.921" stroke="#156082" stroke-width="6.875" stroke-miterlimit="8" fill="none" fill-rule="evenodd" transform="matrix(1 0 0 -1 2190.5 1172.42)"/><path d="M68.4999 1177C68.4999 950.839 1023.03 767.5 2200.5 767.5 3377.97 767.5 4332.5 950.839 4332.5 1177 4332.5 1403.16 3377.97 1586.5 2200.5 1586.5 1023.03 1586.5 68.4999 1403.16 68.4999 1177Z" stroke="#156082" stroke-width="4.58333" stroke-miterlimit="8" fill="none" fill-rule="evenodd"/><path d="M0 198C-2.45078e-14 88.6476 86.1852-2.5208e-14 192.5-5.04161e-14 298.815-1.00832e-13 385 88.6476 385 198 385 307.352 298.815 396 192.5 396 86.1852 396-1.22539e-13 307.352 0 198Z" fill="#FFFF00" fill-rule="evenodd" transform="matrix(-1 0 0 1 957 1279)"/><path d="M2113.73 1200.72C2128.52 1171.04 2162.84 1158.11 2190.37 1171.84 2217.91 1185.56 2228.24 1220.75 2213.45 1250.43 2198.65 1280.1 2164.34 1293.03 2136.8 1279.31 2109.27 1265.58 2098.94 1230.4 2113.73 1200.72Z" stroke="#042433" stroke-width="6.875" stroke-miterlimit="8" fill="#156082" fill-rule="evenodd"/><text font-family="Times New Roman,Times New Roman_MSFontService,sans-serif" font-weight="400" font-size="73" transform="matrix(0.972454 0.233093 -0.233093 0.972454 1100.52 955)">Solar </text><text font-family="Times New Roman,Times New Roman_MSFontService,sans-serif" font-weight="400" font-size="73" transform="matrix(0.972454 0.233093 -0.233093 0.972454 1269.33 995)">d</text><text font-family="Times New Roman,Times New Roman_MSFontService,sans-serif" font-weight="400" font-size="73" transform="matrix(0.972454 0.233093 -0.233093 0.972454 1304.99 1004)">eclination</text><text font-family="Times New Roman,Times New Roman_MSFontService,sans-serif" font-weight="400" font-size="73" transform="matrix(0.972454 0.233093 -0.233093 0.972454 1605.29 1076)">angle</text><text font-family="Times New Roman,Times New Roman_MSFontService,sans-serif" font-weight="400" font-size="73" transform="matrix(1 0 0 1 2238.35 1200)">Earth</text><text font-family="Times New Roman,Times New Roman_MSFontService,sans-serif" font-weight="400" font-size="73" transform="matrix(1 0 0 1 372.105 1501)">Sun</text><text font-family="Times New Roman,Times New Roman_MSFontService,sans-serif" font-weight="400" font-size="73" transform="matrix(0.998661 0.0517218 -0.0517218 0.998661 2608.59 725)">Plane </text><text font-family="Times New Roman,Times New Roman_MSFontService,sans-serif" font-weight="400" font-size="73" transform="matrix(0.998661 0.0517218 -0.0517218 0.998661 2789.96 735)">of</text><text font-family="Times New Roman,Times New Roman_MSFontService,sans-serif" font-weight="400" font-size="73" transform="matrix(0.998661 0.0517218 -0.0517218 0.998661 2869.49 739)">celestial </text><text font-family="Times New Roman,Times New Roman_MSFontService,sans-serif" font-weight="400" font-size="73" transform="matrix(0.998661 0.0517218 -0.0517218 0.998661 3129.24 752)">Equator</text><path d="M1.13648-0.146084 33.0951 248.48 30.8221 248.773-1.13648 0.146084ZM45.012 242.327 34.8802 271.356 17.7364 245.833Z" fill="#156082" transform="matrix(-1 0 0 1 2239.88 449)"/><rect x="1986.5" y="311.5" width="640" height="122" stroke="#A6CAEC" stroke-width="3.4375" stroke-linejoin="round" stroke-miterlimit="10" fill="none"/><text font-family="Times New Roman,Times New Roman_MSFontService,sans-serif" font-weight="400" font-size="73" transform="matrix(1 0 0 1 2019.07 399)">Autumnal</text><text font-family="Times New Roman,Times New Roman_MSFontService,sans-serif" font-weight="400" font-size="73" transform="matrix(1 0 0 1 2331.31 399)">Equinox</text><path d="M1.13148-0.18079 36.6844 222.329 34.4214 222.69-1.13148 0.18079ZM48.4076 215.814 39.1687 245.139 21.252 220.153Z" fill="#156082" transform="matrix(1 0 0 -1 1930 1894.14)"/><rect x="1562.5" y="1893.5" width="549" height="122" stroke="#A6CAEC" stroke-width="3.4375" stroke-miterlimit="8" fill="#FFFFFF"/><text font-family="Times New Roman,Times New Roman_MSFontService,sans-serif" font-weight="400" font-size="73" transform="matrix(1 0 0 1 1594.79 1980)">Vernal </text><text font-family="Times New Roman,Times New Roman_MSFontService,sans-serif" font-weight="400" font-size="73" transform="matrix(1 0 0 1 1804.94 1980)">Equinox</text><path d="M1012.68 1579.79 1185.55 1598.25 1185.18 1601.67 1012.32 1583.21ZM1182.27 1585.8 1208.15 1602.4 1179.35 1613.15Z" fill="#156082"/><path d="M1937.79 1252.27C1929.78 1226.45 1931.85 1199.5 1943.77 1174.5L2125.5 1221Z" fill="#0F9ED5" fill-rule="evenodd" fill-opacity="0.501961"/><path d="M238.747 384.711C329.274 171.442 1279.54 370.766 2361.23 829.915 3442.92 1289.06 4246.41 1834.17 4155.88 2047.44 4065.35 2260.71 3115.09 2061.38 2033.4 1602.23 951.712 1143.08 148.219 597.981 238.747 384.711Z" stroke="#156082" stroke-width="4.58333" stroke-miterlimit="8" stroke-dasharray="18.3333 13.75" fill="none" fill-rule="evenodd"/><path d="M252.5 364.5 2114.2 1201.6" stroke="#4EA72E" stroke-width="6.875" stroke-miterlimit="8" fill="none" fill-rule="evenodd"/><text font-family="Aptos,Aptos_MSFontService,sans-serif" font-weight="400" font-size="83" transform="matrix(1 0 0 1 1814.7 1244)">δ</text><path d="M64.1654 1175.87C56.312 860.727 118.302 559.684 226.328 388.36" stroke="#4EA72E" stroke-width="6.875" stroke-miterlimit="8" fill="none" fill-rule="evenodd"/><rect x="13.4999" y="672.5" width="213" height="111" stroke="#4EA72E" stroke-width="6.875" stroke-miterlimit="8" fill="#FFFFFF"/><text font-family="Aptos,Aptos_MSFontService,sans-serif" font-weight="400" font-size="64" transform="matrix(1 0 0 1 46.3386 747)">23.5</text><text font-family="Aptos,Aptos_MSFontService,sans-serif" font-weight="400" font-size="64" transform="matrix(1 0 0 1 167.797 747)">°</text><text font-family="Times New Roman,Times New Roman_MSFontService,sans-serif" font-weight="400" font-size="73" transform="matrix(0.921138 0.389236 -0.389236 0.921138 493.238 425)">Earth </text><text font-family="Times New Roman,Times New Roman_MSFontService,sans-serif" font-weight="400" font-size="73" transform="matrix(0.921138 0.389236 -0.389236 0.921138 656.836 494)">d</text><text font-family="Times New Roman,Times New Roman_MSFontService,sans-serif" font-weight="400" font-size="73" transform="matrix(0.921138 0.389236 -0.389236 0.921138 690.611 508)">eclination</text><text font-family="Times New Roman,Times New Roman_MSFontService,sans-serif" font-weight="400" font-size="73" transform="matrix(0.921138 0.389236 -0.389236 0.921138 975.061 628)">angle</text></g></svg>