<svg width="4345" height="1860" xmlns="http://www.w3.org/2000/svg" xmlns:xlink="http://www.w3.org/1999/xlink" xml:space="preserve" overflow="hidden"><defs><clipPath id="clip0"><rect x="83" y="258" width="4345" height="1860"/></clipPath></defs><g clip-path="url(#clip0)" transform="translate(-83 -258)"><path d="M4.57609 1041.39C-17.3682 702.41 40.5641 362.071 153.882 164.256" stroke="#4EA72E" stroke-width="6.875" stroke-linecap="square" stroke-miterlimit="8" stroke-dasharray="20.625 6.875" fill="none" fill-rule="evenodd" transform="matrix(-0.930548 -0.36617 -0.36617 0.930548 4619.35 1069.6)"/><path d="M825.518 1399.56C757.546 1232.7 736.942 1052.07 766.53 882.429" stroke="#FFC000" stroke-width="6.875" stroke-miterlimit="8" fill="none" fill-rule="evenodd"/><path d="M144.5 1159.5 2239.94 1211.45" stroke="#4EA72E" stroke-width="6.875" stroke-miterlimit="8" fill="none" fill-rule="evenodd"/><path d="M0 0 1446.81 246.967" stroke="#E97132" stroke-width="4.58333" stroke-miterlimit="8" fill="none" fill-rule="evenodd" transform="matrix(1 0 0 -1 769.5 1449.47)"/><path d="M2187.63 1197.15 769.5 870.5" stroke="#E97132" stroke-width="4.58333" stroke-miterlimit="8" fill="none" fill-rule="evenodd"/><path d="M0 0 170.854 341.921" stroke="#156082" stroke-width="6.875" stroke-miterlimit="8" fill="none" fill-rule="evenodd" transform="matrix(1 0 0 -1 2266.5 1155.42)"/><path d="M144.5 1159.5C144.5 933.615 1099.03 750.5 2276.5 750.5 3453.97 750.5 4408.5 933.615 4408.5 1159.5 4408.5 1385.38 3453.97 1568.5 2276.5 1568.5 1099.03 1568.5 144.5 1385.38 144.5 1159.5Z" stroke="#156082" stroke-width="4.58333" stroke-miterlimit="8" fill="none" fill-rule="evenodd"/><path d="M0 198C-2.45078e-14 88.6476 86.1852-2.5208e-14 192.5-5.04161e-14 298.815-1.00832e-13 385 88.6476 385 198 385 307.352 298.815 396 192.5 396 86.1852 396-1.22539e-13 307.352 0 198Z" fill="#FFFF00" fill-rule="evenodd" transform="matrix(-1 0 0 1 1033 1261)"/><path d="M2189.77 1183.35C2204.56 1153.67 2238.88 1140.74 2266.41 1154.47 2293.95 1168.19 2304.28 1203.38 2289.48 1233.06 2274.69 1262.73 2240.38 1275.67 2212.84 1261.94 2185.3 1248.21 2174.97 1213.03 2189.77 1183.35Z" stroke="#042433" stroke-width="6.875" stroke-miterlimit="8" fill="#156082" fill-rule="evenodd"/><text font-family="Times New Roman,Times New Roman_MSFontService,sans-serif" font-weight="400" font-size="73" transform="matrix(0.972454 0.233093 -0.233093 0.972454 1030.68 903)">Ângulo de declinação solar</text><text font-family="Times New Roman,Times New Roman_MSFontService,sans-serif" font-weight="400" font-size="73" transform="matrix(1 0 0 1 2314.39 1183)">Terra</text><text font-family="Times New Roman,Times New Roman_MSFontService,sans-serif" font-weight="400" font-size="73" transform="matrix(1 0 0 1 448.141 1484)">Sol</text><text font-family="Aptos,Aptos_MSFontService,sans-serif" font-weight="400" font-size="73" transform="matrix(0.998661 0.0517218 -0.0517218 0.998661 2684.21 716)">Plano do </text><text font-family="Aptos,Aptos_MSFontService,sans-serif" font-weight="400" font-size="73" transform="matrix(0.998661 0.0517218 -0.0517218 0.998661 2977.15 731)">equador</text><text font-family="Aptos,Aptos_MSFontService,sans-serif" font-weight="400" font-size="73" transform="matrix(0.998661 0.0517218 -0.0517218 0.998661 3258.07 746)">celeste</text><path d="M1.13648-0.146084 33.0951 248.48 30.8221 248.773-1.13648 0.146084ZM45.012 242.327 34.8802 271.356 17.7364 245.833Z" fill="#156082" transform="matrix(-1 0 0 1 2315.88 431)"/><rect x="1967.5" y="264.5" width="800" height="122" stroke="#A6CAEC" stroke-width="3.4375" stroke-linejoin="round" stroke-miterlimit="10" fill="none"/><text font-family="Aptos,Aptos_MSFontService,sans-serif" font-weight="400" font-size="73" transform="matrix(1 0 0 1 1999.52 348)">Equinócio</text><text font-family="Aptos,Aptos_MSFontService,sans-serif" font-weight="400" font-size="73" transform="matrix(1 0 0 1 2333.53 348)">de </text><text font-family="Aptos,Aptos_MSFontService,sans-serif" font-weight="400" font-size="73" transform="matrix(1 0 0 1 2428.06 348)">Outono</text><path d="M1.13148-0.18079 36.6844 222.329 34.4214 222.69-1.13148 0.18079ZM48.4076 215.814 39.1687 245.139 21.252 220.153Z" fill="#156082" transform="matrix(1 0 0 -1 2006 1876.14)"/><rect x="1577.5" y="1870.5" width="863" height="122" stroke="#A6CAEC" stroke-width="3.4375" stroke-miterlimit="8" fill="#FFFFFF"/><text font-family="Aptos,Aptos_MSFontService,sans-serif" font-weight="400" font-size="73" transform="matrix(1 0 0 1 1610.2 1955)">Equinócio</text><text font-family="Aptos,Aptos_MSFontService,sans-serif" font-weight="400" font-size="73" transform="matrix(1 0 0 1 1944.21 1955)">de Primavera</text><path d="M1088.68 1561.79 1261.55 1580.25 1261.18 1583.67 1088.32 1565.21ZM1258.27 1567.8 1284.15 1584.4 1255.35 1595.15Z" fill="#156082"/><path d="M2013.82 1234.76C2005.75 1208.95 2007.84 1182 2019.84 1157.02L2201.5 1203.5Z" fill="#0F9ED5" fill-rule="evenodd" fill-opacity="0.501961"/><path d="M314.783 367.342C405.311 154.073 1355.58 353.397 2437.27 812.546 3518.95 1271.69 4322.45 1816.8 4231.92 2030.07 4141.39 2243.34 3191.12 2044.01 2109.44 1584.86 1027.75 1125.72 224.256 580.612 314.783 367.342Z" stroke="#156082" stroke-width="4.58333" stroke-miterlimit="8" stroke-dasharray="18.3333 13.75" fill="none" fill-rule="evenodd"/><path d="M328.5 346.5 2190.2 1183.6" stroke="#4EA72E" stroke-width="6.875" stroke-miterlimit="8" fill="none" fill-rule="evenodd"/><text font-family="Aptos,Aptos_MSFontService,sans-serif" font-weight="400" font-size="83" transform="matrix(1 0 0 1 1890.74 1226)">δ</text><path d="M140.165 1158.37C132.305 843.316 194.329 542.364 302.404 371.157" stroke="#4EA72E" stroke-width="6.875" stroke-miterlimit="8" fill="none" fill-rule="evenodd"/><rect x="89.4999" y="655.5" width="213" height="111" stroke="#4EA72E" stroke-width="6.875" stroke-miterlimit="8" fill="#FFFFFF"/><text font-family="Aptos,Aptos_MSFontService,sans-serif" font-weight="400" font-size="64" transform="matrix(1 0 0 1 122.375 730)">23.5</text><text font-family="Aptos,Aptos_MSFontService,sans-serif" font-weight="400" font-size="64" transform="matrix(1 0 0 1 243.833 730)">°</text><text font-family="Times New Roman,Times New Roman_MSFontService,sans-serif" font-weight="400" font-size="73" transform="matrix(0.921138 0.389236 -0.389236 0.921138 569.275 407)">Ângulo de declinação terrestre</text></g></svg>